<svg width="40" height="40" viewBox="0 0 40 40" fill="none" xmlns="http://www.w3.org/2000/svg">
<path fill-rule="evenodd" clip-rule="evenodd" d="M4.40191 0C1.9708 0 0 1.9708 0 4.40191V35.5981C0 38.0292 1.9708 40 4.40191 40H35.5981C38.0292 40 40 38.0292 40 35.5981V4.40191C40 1.9708 38.0292 0 35.5981 0H4.40191ZM27.2825 14.2874L27.3772 14.2594C27.6133 14.2557 27.9459 14.262 28.3596 14.2768C28.6609 14.2875 29.0138 14.3036 29.3766 14.3202C30.0785 14.3522 30.8174 14.386 31.2918 14.386L31.2919 9.60128C30.9159 9.60127 30.3943 9.57702 29.791 9.54897C29.3994 9.53077 28.9734 9.51096 28.5304 9.49514C28.0247 9.47708 27.4848 9.46467 27.0511 9.48209C26.8543 9.49 26.5565 9.50767 26.2615 9.56914C26.1381 9.59485 25.8371 9.66222 25.5089 9.83871C23.9933 10.4079 23.0213 11.4738 22.4694 12.5739C21.926 13.6568 21.7777 14.7797 21.8182 15.6028V18.9311C21.0795 18.952 20.397 18.9752 19.8155 18.9968C19.2315 19.0185 18.7478 19.0387 18.4095 19.0535C18.2403 19.0608 18.1074 19.0669 18.0164 19.0711C17.9931 19.0722 17.9725 19.0731 17.9548 19.0739C17.9379 19.0747 17.9236 19.0754 17.9119 19.076L17.8845 19.0773L17.8773 19.0776L17.8753 19.0777L17.8747 19.0777L17.8745 19.0777C17.8745 19.0778 17.8744 19.0778 17.9904 21.4673C18.1064 23.8568 18.1064 23.8568 18.1064 23.8568L18.1064 23.8568L18.1067 23.8568L18.108 23.8567L18.1139 23.8565L18.1386 23.8553C18.1521 23.8546 18.1698 23.8538 18.1915 23.8528C18.2052 23.8521 18.2205 23.8514 18.2374 23.8507C18.3245 23.8466 18.4533 23.8408 18.618 23.8336C18.9476 23.8192 19.4209 23.7995 19.9932 23.7782C20.5284 23.7583 21.1488 23.7372 21.8182 23.7177V37.9266H26.6029V23.6484C28.2481 23.6567 29.6205 23.7098 30.3244 23.8271L31.111 19.1075C30.0591 18.9322 28.3671 18.8714 26.6029 18.863V15.5343V15.4519L26.5972 15.3697C26.5957 15.3478 26.5942 15.249 26.6202 15.1068C26.6453 14.9693 26.6882 14.8347 26.746 14.7196C26.8018 14.6083 26.865 14.5273 26.9327 14.4674C26.9951 14.4122 27.0975 14.3422 27.2825 14.2874Z" fill="#DBC5AE"/>
</svg>
