<svg width="40" height="40" viewBox="0 0 40 40" fill="none" xmlns="http://www.w3.org/2000/svg">
<path fill-rule="evenodd" clip-rule="evenodd" d="M9.56175 0C4.28094 0 0 4.28094 0 9.56175V30.4382C0 35.7191 4.28094 40 9.56175 40H30.4382C35.7191 40 40 35.7191 40 30.4382V9.56175C40 4.28094 35.7191 0 30.4382 0H9.56175ZM24.3825 29.8008C28.4462 27.3307 33.3068 23.0142 33.3068 18.1673C33.3068 12.2704 27.3848 7.49004 20.0797 7.49004C12.7746 7.49004 6.85259 12.2704 6.85259 18.1673C6.85259 24.0642 12.3506 28.4462 19.1235 29.3227C19.2174 29.6045 19.1076 30.1298 18.9915 30.6857C18.6148 32.4879 18.171 34.6116 24.3825 29.8008Z" fill="#DBC5AE"/>
<rect x="11.1553" y="15.2988" width="1.43426" height="6.21514" rx="0.717131" fill="#DBC5AE"/>
<rect x="16.2549" y="15.2988" width="1.43426" height="6.21514" rx="0.717131" fill="#DBC5AE"/>
<rect x="25.0198" y="15.2988" width="1.43426" height="6.21514" rx="0.717131" fill="#DBC5AE"/>
<rect x="25.0198" y="16.7332" width="1.43426" height="4.14343" rx="0.717131" transform="rotate(-90 25.0198 16.7332)" fill="#DBC5AE"/>
<rect x="25.0198" y="19.1235" width="1.43426" height="4.14343" rx="0.717131" transform="rotate(-90 25.0198 19.1235)" fill="#DBC5AE"/>
<rect x="25.0198" y="21.5139" width="1.43426" height="4.14343" rx="0.717131" transform="rotate(-90 25.0198 21.5139)" fill="#DBC5AE"/>
<rect x="18.4858" y="15.2988" width="1.43426" height="6.21514" rx="0.717131" fill="#DBC5AE"/>
<rect x="18.6453" y="16.1592" width="1.43426" height="6.7688" rx="0.717131" transform="rotate(-36.8633 18.6453 16.1592)" fill="#DBC5AE"/>
<rect x="22.6294" y="15.2988" width="1.43426" height="6.21514" rx="0.717131" fill="#DBC5AE"/>
<rect x="11.1553" y="21.5935" width="1.43426" height="4.22311" rx="0.717131" transform="rotate(-90 11.1553 21.5935)" fill="#DBC5AE"/>
</svg>
