<svg width="33" height="34" viewBox="0 0 33 34" fill="none" xmlns="http://www.w3.org/2000/svg">
<path d="M2.10659 9.51659C3.49327 6.75532 5.62054 4.4341 8.25064 2.81237C10.8807 1.19063 13.91 0.332279 16.9999 0.333253C21.4916 0.333253 25.2649 1.98492 28.1499 4.67492L23.3716 9.45492C21.6433 7.80325 19.4466 6.96159 16.9999 6.96159C12.6583 6.96159 8.98325 9.89492 7.67492 13.8333C7.34159 14.8333 7.15159 15.8999 7.15159 16.9999C7.15159 18.0999 7.34159 19.1666 7.67492 20.1666C8.98492 24.1066 12.6583 27.0383 16.9999 27.0383C19.2416 27.0383 21.1499 26.4466 22.6433 25.4466C23.509 24.8766 24.2501 24.137 24.8219 23.2724C25.3937 22.4079 25.7842 21.4363 25.9699 20.4166H16.9999V13.9699H32.6966C32.8933 15.0599 32.9999 16.1966 32.9999 17.3783C32.9999 22.4549 31.1833 26.7283 28.0299 29.6283C25.2733 32.1749 21.4999 33.6666 16.9999 33.6666C14.811 33.6675 12.6433 33.237 10.6208 32.3997C8.59834 31.5624 6.76067 30.3348 5.21285 28.787C3.66504 27.2392 2.43741 25.4015 1.60014 23.379C0.762875 21.3565 0.332377 19.1889 0.333253 16.9999C0.333253 14.3099 0.976587 11.7666 2.10659 9.51659Z" fill="#DBC5AE"/>
</svg>
