<svg width="377" height="373" viewBox="0 0 377 373" fill="none" xmlns="http://www.w3.org/2000/svg">
<path d="M275.65 143.525C262.505 213.806 216.982 264.198 173.973 256.08C130.963 247.962 106.753 184.407 119.898 114.126C112.753 25.118 183.956 -6.90369 226.966 1.21453C269.976 9.33276 298.349 65.7537 275.65 143.525Z" fill="#DBC5AE" fill-opacity="0.6"/>
<path d="M299.434 197.226C253.94 252.227 189.775 274.037 156.116 245.941C122.457 217.845 132.05 150.481 177.544 95.4804C214.367 14.2054 292.087 20.9894 325.746 49.0855C359.405 77.1817 356.901 140.344 299.434 197.226Z" fill="#DBC5AE" fill-opacity="0.6"/>
<path d="M260.394 252.189C190.244 264.334 127.351 239.059 119.918 195.734C112.486 152.41 163.329 107.444 233.479 95.2986C314.021 57.5174 368.737 113.38 376.169 156.704C383.602 200.028 340.866 246.425 260.394 252.189Z" fill="#DBC5AE" fill-opacity="0.6"/>
<path d="M233.04 284.297C162.758 272.941 111.418 228.549 118.367 185.144C125.317 141.739 187.925 115.758 258.206 127.114C346.591 117.603 380.325 188.267 373.375 231.672C366.425 275.077 311.026 305.052 233.04 284.297Z" fill="#DBC5AE" fill-opacity="0.6"/>
<path d="M178.498 295.966C125.498 248.228 106.217 182.993 135.431 150.261C164.646 117.529 231.294 129.694 284.294 177.433C363.756 217.456 354.084 295.221 324.869 327.953C295.654 360.686 232.919 355.796 178.498 295.966Z" fill="#DBC5AE" fill-opacity="0.6"/>
<path d="M128.015 261.881C110.96 192.454 131.577 127.633 174.065 117.1C216.553 106.567 264.822 154.311 281.877 223.738C325.126 301.753 273.556 360.558 231.069 371.091C188.581 381.623 139.469 342.106 128.015 261.881Z" fill="#DBC5AE" fill-opacity="0.6"/>
<path d="M97.4834 229.811C108.068 159.096 151.731 107.069 195.007 113.606C238.283 120.143 264.784 182.769 254.199 253.484C264.571 342.172 194.577 376.781 151.301 370.244C108.026 363.706 77.6225 308.362 97.4834 229.811Z" fill="#DBC5AE" fill-opacity="0.6"/>
<path d="M35.6179 205.908C46.2028 135.192 89.8657 83.1655 133.142 89.7026C176.417 96.2398 202.919 158.865 192.334 229.581C202.705 318.268 132.712 352.877 89.4359 346.34C46.16 339.803 12.8159 285.665 35.6179 205.908Z" fill="#DBC5AE" fill-opacity="0.6"/>
<path d="M70.4648 111.004C126.323 66.6763 193.597 58.7075 220.724 93.205C247.851 127.703 224.56 191.603 168.701 235.931C115.901 307.768 41.2711 284.94 14.1438 250.442C-12.9835 215.945 2.50422 154.677 70.4648 111.004Z" fill="#DBC5AE" fill-opacity="0.6"/>
<path d="M126.274 80.7549C197.361 77.0227 256.841 109.587 259.125 153.49C261.409 197.393 205.633 236.009 134.545 239.741C50.1227 267.696 2.36219 205.73 0.0781805 161.827C-2.20583 117.924 45.6879 76.925 126.274 80.7549Z" fill="#DBC5AE" fill-opacity="0.6"/>
<path d="M188.895 46.6316C253.53 76.5925 285.069 138.834 266.734 178.752C248.398 218.67 181.137 226.742 116.502 196.781C28.835 182.015 15.3038 104.833 33.639 64.9152C51.9742 24.9971 119.36 5.53457 188.895 46.6316Z" fill="#DBC5AE" fill-opacity="0.6"/>
<path d="M268.959 55.3295C318.331 106.844 325.189 176.345 293.664 206.836C262.138 237.328 196.557 220.285 147.185 168.771C70.8592 123.001 86.1826 46.1577 117.708 15.6661C149.234 -14.8255 220.724 0.336629 268.959 55.3295Z" fill="#DBC5AE" fill-opacity="0.6"/>
</svg>
