<svg width="377" height="374" viewBox="0 0 377 374" fill="none" xmlns="http://www.w3.org/2000/svg">
<path d="M275.65 144.446C262.505 214.727 216.982 265.12 173.973 257.002C130.963 248.883 106.753 185.328 119.898 115.048C112.753 26.0394 183.956 -5.98231 226.966 2.13592C269.976 10.2541 298.349 66.6751 275.65 144.446Z" fill="#DBC5AE" fill-opacity="0.6"/>
<path d="M299.434 198.147C253.94 253.148 189.775 274.959 156.116 246.863C122.457 218.766 132.05 151.403 177.544 96.4018C214.367 15.1268 292.087 21.9107 325.746 50.0069C359.405 78.1031 356.901 141.265 299.434 198.147Z" fill="#DBC5AE" fill-opacity="0.6"/>
<path d="M260.394 253.11C190.244 265.255 127.351 239.98 119.918 196.656C112.486 153.332 163.329 108.365 233.479 96.22C314.021 58.4388 368.737 114.301 376.169 157.625C383.602 200.949 340.866 247.347 260.394 253.11Z" fill="#DBC5AE" fill-opacity="0.6"/>
<path d="M233.04 285.219C162.758 273.863 111.418 229.47 118.367 186.065C125.317 142.661 187.925 116.68 258.206 128.036C346.591 118.524 380.325 189.189 373.375 232.593C366.425 275.998 311.026 305.973 233.04 285.219Z" fill="#DBC5AE" fill-opacity="0.6"/>
<path d="M178.498 296.888C125.498 249.149 106.217 183.915 135.431 151.183C164.646 118.451 231.294 130.616 284.294 178.354C363.756 218.378 354.084 296.143 324.869 328.875C295.654 361.607 232.919 356.718 178.498 296.888Z" fill="#DBC5AE" fill-opacity="0.6"/>
<path d="M128.015 262.803C110.96 193.375 131.577 128.554 174.065 118.021C216.553 107.488 264.822 155.232 281.877 224.66C325.126 302.675 273.556 361.479 231.069 372.012C188.581 382.545 139.469 343.027 128.015 262.803Z" fill="#DBC5AE" fill-opacity="0.6"/>
<path d="M97.4834 230.733C108.068 160.017 151.731 107.99 195.007 114.527C238.283 121.065 264.784 183.69 254.199 254.406C264.571 343.093 194.577 377.702 151.301 371.165C108.026 364.628 77.6225 309.284 97.4834 230.733Z" fill="#DBC5AE" fill-opacity="0.6"/>
<path d="M35.6179 206.829C46.2028 136.114 89.8657 84.0869 133.142 90.624C176.417 97.1612 202.919 159.787 192.334 230.502C202.705 319.19 132.712 353.799 89.4359 347.262C46.16 340.724 12.8159 286.587 35.6179 206.829Z" fill="#DBC5AE" fill-opacity="0.6"/>
<path d="M70.4648 111.925C126.323 67.5977 193.597 59.6288 220.724 94.1264C247.851 128.624 224.56 192.524 168.701 236.852C115.901 308.689 41.2711 285.861 14.1438 251.364C-12.9835 216.866 2.50422 155.599 70.4648 111.925Z" fill="#DBC5AE" fill-opacity="0.6"/>
<path d="M126.274 81.6763C197.361 77.9441 256.841 110.509 259.125 154.412C261.409 198.315 205.633 236.93 134.545 240.663C50.1227 268.618 2.36219 206.651 0.0781805 162.748C-2.20583 118.846 45.6879 77.8464 126.274 81.6763Z" fill="#DBC5AE" fill-opacity="0.6"/>
<path d="M188.895 47.553C253.53 77.5139 285.069 139.755 266.734 179.673C248.398 219.592 181.137 227.663 116.502 197.703C28.835 182.937 15.3038 105.755 33.639 65.8366C51.9742 25.9185 119.36 6.45595 188.895 47.553Z" fill="#DBC5AE" fill-opacity="0.6"/>
<path d="M268.959 56.2509C318.331 107.766 325.189 177.266 293.664 207.758C262.138 238.249 196.557 221.207 147.185 169.692C70.8592 123.922 86.1826 47.0791 117.708 16.5875C149.234 -13.9041 220.724 1.25802 268.959 56.2509Z" fill="#DBC5AE" fill-opacity="0.6"/>
</svg>
