<svg width="82" height="82" viewBox="0 0 82 82" fill="none" xmlns="http://www.w3.org/2000/svg">
<ellipse cx="37.9836" cy="47.968" rx="26.8167" ry="9.28848" transform="rotate(11.2222 37.9836 47.968)" fill="#E3D8C6"/>
<path d="M12.3294 45.5243C9.93437 42.9982 14.3783 30.4626 26.2834 19.1754C30.8688 14.8279 55.1377 19.7857 58.7113 25.8513C69.9986 37.7563 61.9118 54.4662 63.4185 54.7764C81.6394 16.9083 21.1734 2.56483 12.3294 45.5243Z" fill="#E3D8C6"/>
<path d="M48.8002 20.7741C48.3331 21.5013 48.0167 21.353 47.6572 21.1221C47.2978 20.8912 47.0314 20.6652 47.4985 19.938C47.9656 19.2108 48.4914 19.1555 48.9951 19.0394C49.1604 19.45 49.2673 20.047 48.8002 20.7741Z" fill="#E3D8C6"/>
<path d="M46.6715 20.0333C46.5955 20.8942 46.2465 20.9098 45.8209 20.8722C45.3953 20.8346 45.0544 20.7581 45.1304 19.8972C45.2064 19.0363 45.6465 18.7431 46.0386 18.4064C46.3757 18.6932 46.7476 19.1724 46.6715 20.0333Z" fill="#E3D8C6"/>
<path d="M43.9098 19.6431C43.8338 20.504 43.4848 20.5196 43.0592 20.482C42.6336 20.4445 42.2927 20.368 42.3687 19.5071C42.4447 18.6462 42.8848 18.353 43.2769 18.0163C43.614 18.3031 43.9858 18.7822 43.9098 19.6431Z" fill="#E3D8C6"/>
</svg>
