<svg width="80" height="81" viewBox="0 0 80 81" fill="none" xmlns="http://www.w3.org/2000/svg">
<path fill-rule="evenodd" clip-rule="evenodd" d="M77.9873 41.2188C79.1954 38.6485 79.5828 35.92 79.0898 33.2604C78.4295 29.6983 76.2727 25.7586 72.9033 22.7581C73.207 17.6527 71.5011 13.3058 68.1929 10.5895C65.2569 8.17885 60.7708 6.56136 55.992 6.70836C53.8265 3.44513 50.8224 1.36057 47.4015 0.761139C44.9754 0.336036 42.1323 0.535531 39.3078 1.42246C33.3809 -0.0167693 27.9168 0.862983 24.6344 4.1948C24.1178 4.71927 23.6236 5.30596 23.1598 5.94639C15.5026 6.12445 9.48281 9.7607 7.24618 14.9291C6.1576 17.4446 5.65833 20.6381 5.96577 23.9639C2.19265 27.179 0.281216 31.3473 0.568113 35.6096C0.681598 37.2955 1.10855 39.1022 1.83584 40.8937C0.278341 46.0388 1.01827 50.8817 3.80759 54.3694C4.63516 55.4042 5.66509 56.385 6.85411 57.2608C7.6351 67.2382 13.2358 73.5615 19.8578 74.4695C21.3161 74.6694 22.9152 74.6408 24.5619 74.3737C26.7831 77.1656 29.6642 78.897 32.8587 79.335C35.302 79.67 38.1409 79.3633 40.9359 78.3682C43.7559 79.6891 46.7159 80.0015 49.5194 79.2471C52.2902 78.5015 55.2312 76.7458 57.6767 74.1807C62.3232 74.4476 66.3297 72.872 68.9607 69.7773C71.3271 66.9938 73.0325 62.7286 73.1978 58.0795C76.3184 55.7879 78.2685 52.6768 78.7619 49.1805C79.1013 46.7752 78.8582 43.9868 77.9873 41.2188Z" fill="#9D2933"/>
<path fill-rule="evenodd" clip-rule="evenodd" d="M78.2397 42.2503C79.495 39.6998 79.9282 36.9778 79.4758 34.3107C78.8699 30.7385 76.7665 26.7646 73.4296 23.7103C73.817 18.6104 72.1733 14.2367 68.8932 11.4677C65.9822 9.01015 61.5009 7.3208 56.6971 7.39102C54.574 4.09342 51.5893 1.96087 48.1618 1.30656C45.7311 0.842543 42.8713 0.996341 40.019 1.83778C34.0873 0.30353 28.5831 1.09539 25.2314 4.37405C24.7037 4.89016 24.1978 5.46883 23.7214 6.10173C16.0251 6.15676 9.918 9.69584 7.58733 14.8277C6.45297 17.3254 5.89979 20.5104 6.155 23.8407C2.31209 26.9948 0.324296 31.1319 0.543752 35.3982C0.63056 37.0857 1.03037 38.899 1.7322 40.702C0.0842544 45.8214 0.749513 50.6756 3.49577 54.2077C4.31056 55.2556 5.32955 56.2528 6.51007 57.1476C7.1337 67.1362 12.6589 73.5487 19.2977 74.5629C20.7596 74.7863 22.3668 74.7833 24.0256 74.5427C26.2123 77.37 29.0791 79.1474 32.2817 79.6367C34.7312 80.0109 37.5885 79.7499 40.4128 78.7998C43.2249 80.1657 46.1939 80.5257 49.0229 79.8165C51.8188 79.1155 54.8021 77.4072 57.3006 74.8817C61.9649 75.2232 66.0159 73.7122 68.7093 70.6602C71.1319 67.9151 72.9141 63.6777 73.1553 59.0319C76.3277 56.7907 78.3372 53.7114 78.8894 50.2235C79.2693 47.824 79.07 45.032 78.2397 42.2503ZM76.8625 42.3413C78.0725 39.8749 78.4901 37.2426 78.054 34.6634C77.4699 31.2089 75.4425 27.3661 72.2261 24.4125C72.5995 19.4807 71.0151 15.2512 67.8535 12.5734C65.0476 10.1969 60.7281 8.56329 56.0976 8.63119C54.0512 5.44231 51.1743 3.38006 47.8705 2.74733C45.5275 2.2986 42.7709 2.44733 40.0217 3.26103C34.3041 1.77736 28.9986 2.54312 25.7678 5.71369C25.2593 6.21278 24.7715 6.77237 24.3124 7.38441C16.8939 7.43763 11.0073 10.86 8.76077 15.8227C7.66737 18.238 7.13415 21.3181 7.38015 24.5386C3.67597 27.5887 1.75994 31.5894 1.97147 35.715C2.05515 37.347 2.44052 39.1005 3.11701 40.844C1.52856 45.7946 2.16981 50.4888 4.81692 53.9044C5.6023 54.9178 6.5845 55.8821 7.7224 56.7475C8.32352 66.4068 13.6492 72.6078 20.0484 73.5887C21.4575 73.8046 23.0067 73.8018 24.6056 73.5691C26.7134 76.3032 29.4766 78.022 32.5637 78.4951C34.9247 78.857 37.6789 78.6046 40.4012 77.6858C43.1118 79.0068 45.9736 79.3549 48.7004 78.669C51.3954 77.9911 54.271 76.3391 56.6794 73.8969C61.1752 74.2272 65.08 72.7659 67.6761 69.8145C70.0113 67.1599 71.7292 63.0623 71.9617 58.5697C75.0195 56.4023 76.9566 53.4245 77.4888 50.0516C77.855 47.7312 77.6628 45.0312 76.8625 42.3413Z" fill="white"/>
<path fill-rule="evenodd" clip-rule="evenodd" d="M75.6856 42.2931C76.8628 39.9014 77.269 37.349 76.8448 34.8479C76.2766 31.4981 74.3042 27.7717 71.175 24.9076C71.5384 20.1253 69.997 16.024 66.9212 13.4273C64.1914 11.1228 59.9892 9.5387 55.4845 9.60454C53.4936 6.51229 50.6948 4.51253 47.4807 3.89897C45.2014 3.46384 42.5196 3.60807 39.845 4.39711C34.2826 2.9584 29.1212 3.70095 25.9782 6.77544C25.4834 7.25941 25.0089 7.80205 24.5623 8.39553C17.3451 8.44714 11.6184 11.7658 9.43285 16.5781C8.36914 18.9203 7.85039 21.907 8.08972 25.0299C4.48611 27.9875 2.6221 31.867 2.82789 35.8677C2.90929 37.4501 3.2842 39.1505 3.94233 40.8412C2.397 45.6418 3.02084 50.1937 5.59608 53.5059C6.36014 54.4885 7.31567 55.4236 8.42268 56.2628C9.00748 65.6294 14.1886 71.6425 20.414 72.5936C21.7849 72.803 23.292 72.8003 24.8475 72.5746C26.8981 75.2258 29.5863 76.8926 32.5895 77.3514C34.8865 77.7023 37.5658 77.4575 40.2143 76.5666C42.8513 77.8475 45.6353 78.1851 48.2882 77.52C50.91 76.8626 53.7075 75.2607 56.0505 72.8925C60.4243 73.2128 64.223 71.7958 66.7487 68.9338C69.0204 66.3597 70.6917 62.3862 70.9178 58.0297C73.8927 55.9281 75.7771 53.0405 76.2949 49.7698C76.6511 47.5197 76.4642 44.9015 75.6856 42.2931ZM74.3942 42.3783C75.5288 40.0654 75.9205 37.5971 75.5115 35.1785C74.9638 31.9391 73.0626 28.3356 70.0465 25.5659C70.3967 20.9413 68.9109 16.9751 65.9462 14.4641C63.315 12.2356 59.2645 10.7036 54.9224 10.7673C53.0033 7.77701 50.3056 5.84318 47.2075 5.24985C45.0105 4.82907 42.4256 4.96853 39.8475 5.73156C34.4859 4.34028 29.5108 5.05836 26.4813 8.03149C26.0044 8.49951 25.547 9.02425 25.1165 9.59817C18.1599 9.64808 12.6399 12.8574 10.5332 17.511C9.50793 19.7759 9.00791 22.6642 9.23859 25.6842C5.76508 28.5443 3.96836 32.2959 4.16672 36.1646C4.24519 37.6949 4.60657 39.3393 5.24093 40.9742C3.75139 45.6165 4.35271 50.0184 6.83498 53.2213C7.57145 54.1716 8.49249 55.0759 9.55953 55.8874C10.1232 64.9452 15.1173 70.7601 21.118 71.6798C22.4394 71.8823 23.8921 71.8797 25.3914 71.6615C27.3679 74.2253 29.9591 75.8371 32.8539 76.2807C35.0679 76.6201 37.6506 76.3834 40.2034 75.5219C42.7452 76.7605 45.4288 77.087 47.9858 76.4438C50.513 75.8081 53.2095 74.259 55.4679 71.9689C59.6838 72.2786 63.3454 70.9083 65.7799 68.1407C67.9696 65.6514 69.5806 61.809 69.7985 57.5961C72.666 55.5637 74.4824 52.7713 74.9815 49.6084C75.3248 47.4325 75.1447 44.9007 74.3942 42.3783Z" fill="white"/>
<path fill-rule="evenodd" clip-rule="evenodd" d="M52.2285 18.4385L52.2285 20.2828L55.795 20.2828L55.795 22.0218L51.9429 22.0218C51.1541 22.0218 50.5146 21.373 50.5146 20.5726L50.5146 18.1486C50.5146 17.3483 51.1541 16.6995 51.9429 16.6995L58.2781 16.6995C59.0668 16.6995 59.7063 17.3483 59.7063 18.1486V20.2301L65.9665 20.2301C66.7552 20.2301 67.3947 20.8789 67.3947 21.6793V28.0818H69.6527C70.4415 28.0818 71.0809 28.7306 71.0809 29.5309V35.7491C71.0809 36.5494 70.4415 37.1982 69.6527 37.1982H67.109C66.3202 37.1982 65.6808 36.5494 65.6808 35.7491V32.64H67.3947V35.4592H69.367V29.8208H63.4978V40.1755C63.4978 40.9759 62.8584 41.6247 62.0696 41.6247H55.7871C54.9983 41.6247 54.3589 40.9759 54.3589 40.1755L54.3588 33.9311H52.1535C51.3647 33.9311 50.7253 33.2823 50.7253 32.4819L50.7253 25.2099C50.7253 24.4095 51.3647 23.7607 52.1535 23.7607L57.9924 23.7607L57.9924 18.4385L52.2285 18.4385ZM56.0727 33.9311L56.0727 39.8857H61.784V29.5309C61.784 28.7306 62.4234 28.0818 63.2122 28.0818H65.6808V21.9691L59.7063 21.9691V24.0506C59.7063 24.8509 59.0668 25.4997 58.2781 25.4997L52.4391 25.4997L52.4391 28.0818H58.2781C59.0668 28.0818 59.7063 28.7306 59.7063 29.5309V32.4819C59.7063 33.2823 59.0668 33.9311 58.2781 33.9311L56.0727 33.9311ZM52.4391 29.8208L52.4391 32.1921H54.3588L54.3588 29.8208L52.4391 29.8208ZM56.0727 29.8208V32.1921L57.9924 32.1921L57.9924 29.8208L56.0727 29.8208Z" fill="white"/>
<path fill-rule="evenodd" clip-rule="evenodd" d="M20.1075 43.3636L26.39 43.3636C27.1788 43.3636 27.8182 44.0124 27.8182 44.8127V51.0572L30.0236 51.0572C30.8124 51.0572 31.4518 51.706 31.4518 52.5063V59.7783C31.4518 60.5787 30.8124 61.2275 30.0236 61.2275H24.1847L24.1847 66.5498H29.9486V64.7054L26.382 64.7054V62.9664L30.2342 62.9664C31.023 62.9664 31.6624 63.6152 31.6624 64.4156V66.8396C31.6624 67.6399 31.023 68.2887 30.2342 68.2887H23.899C23.1102 68.2887 22.4708 67.6399 22.4708 66.8396V64.7581H16.2106C15.4218 64.7581 14.7824 64.1093 14.7824 63.309L14.7824 56.9064H12.5244C11.7356 56.9064 11.0962 56.2576 11.0962 55.4573L11.0962 49.2391C11.0962 48.4388 11.7356 47.79 12.5244 47.79L15.0681 47.79C15.8568 47.79 16.4963 48.4388 16.4963 49.2391V52.3482H14.7824V49.529L12.81 49.529V55.1674L18.6793 55.1674L18.6793 44.8127C18.6793 44.0124 19.3187 43.3636 20.1075 43.3636ZM16.4963 56.9064V63.0191H22.4708L22.4708 60.9376C22.4708 60.1373 23.1102 59.4885 23.899 59.4885H29.7379V56.9064L23.899 56.9064C23.1102 56.9064 22.4708 56.2576 22.4708 55.4573L22.4708 52.5063C22.4708 51.706 23.1102 51.0572 23.899 51.0572L26.1044 51.0572V45.1025H20.3931V55.4573C20.3931 56.2576 19.7537 56.9064 18.9649 56.9064L16.4963 56.9064ZM26.1044 52.7961H24.1847L24.1847 55.1674H26.1044V52.7961ZM27.8182 55.1674L29.7379 55.1674V52.7961H27.8182V55.1674Z" fill="white"/>
<path d="M16.3474 31.6882C16.3474 31.0148 16.8933 30.4689 17.5667 30.4689H37.1849C37.8583 30.4689 38.4042 31.0148 38.4042 31.6882V31.6882C38.4042 32.3616 37.8583 32.9075 37.1849 32.9075H17.5667C16.8933 32.9075 16.3474 32.3616 16.3474 31.6882V31.6882ZM26.0018 30.7578C26.0018 29.9452 26.6605 29.2865 27.4731 29.2865V29.2865C28.2856 29.2865 28.9443 29.9452 28.9443 30.7578V38.4564C28.9443 39.2689 28.2856 39.9276 27.4731 39.9276V39.9276C26.6605 39.9276 26.0018 39.2689 26.0018 38.4564V30.7578ZM27.3137 24.8527C26.8443 24.8527 26.4638 25.2332 26.4638 25.7025V25.7025C26.4638 26.1719 26.8443 26.5524 27.3137 26.5524H27.4136C27.8829 26.5524 28.2634 26.1719 28.2634 25.7025V25.7025C28.2634 25.2332 27.8829 24.8527 27.4136 24.8527H27.3137ZM27.3013 21.1579C26.8388 21.1579 26.4638 21.5329 26.4638 21.9954V21.9954C26.4638 22.4579 26.8388 22.8329 27.3013 22.8329H27.4259C27.8884 22.8329 28.2634 22.4579 28.2634 21.9954V21.9954C28.2634 21.5329 27.8884 21.1579 27.4259 21.1579H27.3013ZM23.9834 22.4438C23.9834 20.5501 25.5185 19.0149 27.4123 19.0149V19.0149C29.306 19.0149 30.8412 20.5501 30.8412 22.4438V25.2911C30.8412 27.1848 29.306 28.72 27.4123 28.72V28.72C25.5185 28.72 23.9834 27.1848 23.9834 25.2911V22.4438ZM26.1911 17.9206C26.3126 17.2674 26.9284 16.7943 27.5836 16.9049V16.9049C28.3043 17.0266 28.7265 17.7885 28.4466 18.4637C28.3141 18.7834 28.185 19.0919 28.0618 19.3775C27.8606 19.8441 27.3505 20.0865 26.8568 19.9662V19.9662C26.2688 19.823 25.9164 19.2225 26.0465 18.6314C26.0982 18.3963 26.1472 18.1565 26.1911 17.9206ZM36.0314 26.3998C35.9001 25.8741 36.2113 25.3341 36.7366 25.2011V25.2011C37.2345 25.075 37.7447 25.3618 37.8794 25.8575C38.1102 26.7071 38.3246 27.6241 38.4769 28.4142C38.57 28.897 38.2679 29.3608 37.7942 29.4928V29.4928C37.211 29.6552 36.6183 29.253 36.5147 28.6565C36.3897 27.9372 36.2177 27.1461 36.0314 26.3998ZM21.3327 26.0855C21.2194 25.5555 21.5476 25.0267 22.0765 24.9084V24.9084C22.5845 24.7948 23.0924 25.1027 23.2116 25.6095C23.4161 26.4781 23.6054 27.4158 23.7381 28.2305C23.8178 28.7199 23.5008 29.1797 23.0197 29.3001V29.3001C22.4296 29.4477 21.8451 29.0296 21.758 28.4276C21.6501 27.6819 21.4981 26.8584 21.3327 26.0855ZM17.1256 24.5818C17.0778 24.4074 16.9923 24.1301 16.8915 23.8234C16.6513 23.093 17.0084 22.1291 17.4174 21.4781V21.4781C17.6896 21.0843 18.4278 19.762 18.9864 18.2785C19.215 17.6712 19.8801 17.3231 20.4929 17.5367V17.5367C21.1062 17.7505 21.4135 18.4381 21.1301 19.0226C20.3454 20.6414 19.3455 22.2476 18.4557 23.3538C18.4447 23.3675 18.4388 23.3844 18.4388 23.4021V23.4021C18.4388 23.4307 18.4236 23.4567 18.3984 23.4704C18.1776 23.5908 17.1256 24.1849 17.1256 24.5818ZM17.1256 24.5818L17.1003 23.723C17.0858 23.2297 17.3233 22.763 17.7307 22.4845V22.4845C17.9397 22.3416 18.1825 22.2559 18.435 22.2361L20.3516 22.0857C20.9279 22.0405 21.3892 22.6251 21.3343 23.2005V23.2005C21.2941 23.6213 20.976 23.904 20.5566 23.9559C18.0835 24.2621 17.4821 24.4013 17.1256 24.5818ZM17.0526 29.4343C17.0382 29.365 17.018 29.2816 16.9929 29.1878C16.7226 28.1759 17.1869 26.7469 17.8795 25.9612V25.9612C18.4013 25.3692 19.9803 23.2709 21.1553 21.0526C21.4644 20.4691 22.1928 20.2284 22.769 20.5511V20.5511C23.3167 20.8578 23.5093 21.5542 23.1757 22.086C21.7492 24.3607 19.96 26.5935 18.2428 28.2302C18.2281 28.2442 18.2199 28.2634 18.2199 28.2837V28.2837C18.2199 28.3098 18.2067 28.3337 18.1844 28.3473C17.989 28.4669 17.0526 29.0593 17.0526 29.4343ZM17.0526 29.4343L17.0162 28.5965C16.9935 28.0768 17.244 27.583 17.6768 27.2943V27.2943C17.8739 27.1629 18.0996 27.0804 18.335 27.0537L21.8734 26.6536C22.4301 26.5906 22.8964 27.1447 22.8633 27.704V27.704C22.8385 28.1241 22.5276 28.4173 22.1106 28.4748C18.2066 29.0132 17.4888 29.2018 17.0526 29.4343ZM31.595 24.7296C31.5453 24.5283 31.4551 24.2242 31.3474 23.8946C31.1159 23.1856 31.4525 22.175 31.8625 21.552V21.552C32.1378 21.1338 32.89 19.7493 33.4765 18.232C33.7069 17.6357 34.35 17.2886 34.9631 17.4698V17.4698C35.6221 17.6644 35.9721 18.3845 35.6782 19.0057C34.8811 20.6906 33.8495 22.3441 32.9437 23.4839C32.9364 23.4931 32.9325 23.5044 32.9325 23.5161V23.5161C32.9325 23.5353 32.9227 23.5525 32.9059 23.5617C32.7177 23.6652 31.595 24.3008 31.595 24.7296ZM31.595 24.7296L31.5575 23.8304C31.5355 23.3036 31.7929 22.8043 32.2347 22.5166V22.5166C32.4375 22.3846 32.6693 22.3038 32.9102 22.2812L35.26 22.0608C35.8703 22.0036 36.3688 22.6173 36.3145 23.2278V23.2278C36.2747 23.6758 35.9338 23.9778 35.4871 24.0303C32.6258 24.3663 31.9761 24.5479 31.595 24.7296ZM31.7652 29.5821C31.7448 29.5033 31.7174 29.405 31.6848 29.2931C31.3832 28.2577 31.8931 26.8809 32.5921 26.0597V26.0597C33.1338 25.4688 34.7464 23.4135 35.962 21.2103C36.2873 20.6206 37.0318 20.3841 37.6167 20.7178V20.7178C38.1813 21.0398 38.3701 21.7652 38.0144 22.3091C36.5549 24.5411 34.7533 26.7694 33.0047 28.3538C32.9896 28.3675 32.9812 28.3868 32.9812 28.4071V28.4071C32.9812 28.433 32.9678 28.4566 32.9455 28.4697C32.7448 28.5878 31.7652 29.1842 31.7652 29.5821ZM31.7652 29.5821L31.7312 28.7999C31.7072 28.2484 31.9824 27.7268 32.4513 27.4354V27.4354C32.6557 27.3083 32.8873 27.2313 33.1271 27.2107L36.7782 26.8967C37.3468 26.8478 37.7977 27.4352 37.7413 28.0031V28.0031C37.6981 28.4375 37.3681 28.7303 36.9341 28.7773C32.9628 29.208 32.2236 29.3732 31.7652 29.5821ZM22.1015 34.1617C22.4957 33.8551 23.0189 33.7365 23.4854 33.9149V33.9149C24.2861 34.2212 24.5513 35.2146 23.9214 35.7962C22.4232 37.1794 20.4576 38.3295 18.4252 39.0268C17.9382 39.1939 17.4389 39.0126 17.1441 38.5905V38.5905C16.6171 37.8356 16.9548 36.569 17.8307 36.2855C19.4758 35.753 21.0118 35.0097 22.1015 34.1617ZM31.5364 35.9941C30.8425 35.5795 30.694 34.6271 31.246 34.0365V34.0365C31.6253 33.6307 32.2283 33.5244 32.7182 33.7864C34.2243 34.592 35.9714 35.6114 37.2975 36.5163C37.944 36.9574 38.021 37.8543 37.5027 38.4407V38.4407C36.995 39.0151 36.1124 39.0671 35.499 38.6073C34.3819 37.7698 32.9127 36.8164 31.5364 35.9941Z" fill="white"/>
<path d="M47.9625 55.6878C47.9625 55.1641 48.3871 54.7395 48.9108 54.7395H57.7142C58.238 54.7395 58.6626 55.1641 58.6626 55.6878V55.6878C58.6626 56.2116 58.238 56.6362 57.7142 56.6362H48.9108C48.3871 56.6362 47.9625 56.2116 47.9625 55.6878V55.6878ZM60.6747 59.7156C61.168 59.3551 61.8473 59.3554 62.3183 59.7447V59.7447C62.9728 60.2857 62.927 61.3012 62.2063 61.7503C60.9737 62.5185 59.669 63.2438 58.5179 63.818C58.1079 64.0225 57.6158 63.9447 57.28 63.633V63.633C56.7034 63.0976 56.8392 62.1443 57.5216 61.7526C58.596 61.1357 59.7387 60.3996 60.6747 59.7156ZM47.8895 52.6335C47.8895 52.0553 48.3582 51.5866 48.9364 51.5866H56.4705C58.7287 51.5866 60.5594 53.4173 60.5594 55.6755V55.6755C60.5594 57.9338 58.7287 59.7645 56.4705 59.7645H48.9487C48.3637 59.7645 47.8895 59.2902 47.8895 58.7053V58.7053C47.8895 58.1203 48.3637 57.6461 48.9487 57.6461H55.634C56.7291 57.6461 57.6169 56.7583 57.6169 55.6632V55.6632C57.6169 54.5681 56.7291 53.6803 55.634 53.6803H48.9364C48.3582 53.6803 47.8895 53.2116 47.8895 52.6335V52.6335ZM53.4039 45.4488C53.8592 45.2005 54.4184 45.2696 54.829 45.5865C56.847 47.1438 59.9462 48.6235 62.9889 49.5944C63.8891 49.8817 64.2085 51.1414 63.6698 51.9178V51.9178C63.3498 52.379 62.8048 52.554 62.2754 52.3672C59.1178 51.2526 55.7092 49.4099 53.1855 47.3422C52.5489 46.8207 52.6815 45.8428 53.4039 45.4488V45.4488ZM52.0493 44.6408C52.5118 44.1495 53.2395 43.9731 53.8426 44.2757V44.2757C54.6435 44.6775 54.8651 45.7192 54.2339 46.3551C51.7022 48.9059 48.3102 50.8976 44.7621 52.2675C44.2166 52.4782 43.6415 52.2919 43.3087 51.811V51.811C42.8072 51.0865 43.0467 49.9466 43.8729 49.6403C46.9918 48.4838 50.0588 46.755 52.0493 44.6408ZM46.2116 67.1048V67.1048C45.8102 65.8851 46.0666 64.2302 46.0895 62.9463C46.0898 62.9286 46.09 62.9107 46.09 62.8927V53.0214C46.09 52.229 46.7323 51.5866 47.5248 51.5866V51.5866C48.3172 51.5866 48.9595 52.229 48.9595 53.0214V60.5732C48.9595 62.9928 46.2116 64.6852 46.2116 67.1048V67.1048ZM46.2116 67.1048L46.1565 66.1125C46.1155 65.3721 46.4796 64.6677 47.1074 64.2729V64.2729C47.3661 64.1103 47.6581 64.0078 47.9617 63.9732L53.2297 63.3722C53.939 63.2913 54.5463 63.9724 54.5452 64.6862V64.6862C54.5442 65.2684 54.1234 65.7147 53.5468 65.7955C47.9137 66.585 46.878 66.7789 46.2116 67.1048ZM53.5494 62.4618C52.8037 62.0677 52.6626 61.045 53.2908 60.4822V60.4822C53.6435 60.1661 54.1499 60.0888 54.5775 60.2924C56.9033 61.4 59.7209 62.903 61.7551 64.2053C62.4813 64.6702 62.5491 65.6784 61.9287 66.2773V66.2773C61.4236 66.7648 60.6363 66.8018 60.0635 66.396C58.3426 65.1769 55.8383 63.6713 53.5494 62.4618ZM50.1025 49.9485C50.1025 49.4112 50.5381 48.9756 51.0755 48.9756H55.6955C56.2328 48.9756 56.6685 49.4112 56.6685 49.9485V49.9485C56.6685 50.4859 56.2328 50.9215 55.6955 50.9215H51.0755C50.5381 50.9215 50.1025 50.4859 50.1025 49.9485V49.9485Z" fill="white"/>
</svg>
