<svg width="80" height="82" viewBox="0 0 80 82" fill="none" xmlns="http://www.w3.org/2000/svg">
<path fill-rule="evenodd" clip-rule="evenodd" d="M78.421 40.7059C79.6731 38.1868 80.0968 35.5491 79.629 33.0139C79.0025 29.6182 76.8665 25.9211 73.4927 23.176C73.8594 18.2579 72.1842 14.1511 68.8691 11.6766C65.9268 9.48062 61.4072 8.11023 56.5708 8.44726C54.418 5.40047 51.4031 3.52056 47.9492 3.08475C45.4997 2.77568 42.621 3.08385 39.7532 4.05179C33.7738 2.91171 28.2356 3.9809 24.876 7.3168C24.3472 7.84191 23.8404 8.42588 23.3637 9.06025C15.615 9.54506 9.48243 13.2856 7.15941 18.3434C6.02878 20.8051 5.48646 23.894 5.75872 27.0771C1.90404 30.3209 -0.0783264 34.4044 0.162244 38.4881C0.257403 40.1034 0.668284 41.8219 1.3832 43.5135C-0.252477 48.521 0.439647 53.1441 3.22092 56.381C4.0461 57.3414 5.07664 58.2416 6.26935 59.0345C6.94316 68.5894 12.5356 74.4357 19.2245 75.0369C20.6974 75.1692 22.3156 75.0762 23.9846 74.7521C26.1993 77.3438 29.0938 78.8893 32.3206 79.1793C34.7886 79.4011 37.6642 78.9901 40.5034 77.9195C43.3411 79.0731 46.332 79.252 49.177 78.4123C51.9889 77.5823 54.9847 75.7748 57.4887 73.2099C62.1864 73.276 66.2582 71.5979 68.956 68.5166C71.3825 65.7451 73.1575 61.5769 73.3789 57.103C76.5627 54.7732 78.5719 51.704 79.1118 48.3243C79.4832 45.9993 79.2697 43.3299 78.421 40.7059Z" fill="#9D2933"/>
<path fill-rule="evenodd" clip-rule="evenodd" d="M78.2553 43.335C79.5111 40.7836 79.9445 38.0606 79.4919 35.3926C78.8857 31.8191 76.7816 27.8439 73.4436 24.7885C73.8312 19.6869 72.1868 15.3117 68.9056 12.5416C65.9936 10.0833 61.5108 8.39334 56.7053 8.46358C54.5814 5.16485 51.5958 3.03156 48.167 2.37703C45.7355 1.91284 42.8747 2.0667 40.0215 2.90843C34.0877 1.37365 28.5816 2.16579 25.2287 5.44558C24.7009 5.96186 24.1947 6.54073 23.7182 7.17385C16.0192 7.22891 9.91002 10.7692 7.57854 15.9028C6.44379 18.4014 5.89041 21.5875 6.14571 24.919C2.30147 28.0741 0.312995 32.2127 0.532527 36.4804C0.619365 38.1686 1.01931 39.9825 1.72138 41.7861C0.0728707 46.9072 0.73836 51.7631 3.48557 55.2964C4.30064 56.3447 5.31998 57.3423 6.50091 58.2374C7.12476 68.2295 12.6518 74.6441 19.293 75.6587C20.7554 75.8821 22.3632 75.8792 24.0225 75.6385C26.21 78.4667 29.0777 80.2448 32.2815 80.7342C34.7318 81.1085 37.5901 80.8474 40.4154 79.897C43.2284 81.2635 46.1984 81.6236 49.0284 80.914C51.8253 80.2128 54.8096 78.5039 57.309 75.9776C61.9749 76.3192 66.0273 74.8076 68.7216 71.7546C71.145 69.0085 72.9279 64.7698 73.1692 60.1223C76.3427 57.8804 78.3529 54.8 78.9053 51.3109C79.2853 48.9105 79.0859 46.1175 78.2553 43.335ZM76.8774 43.4255C78.0878 40.9582 78.5055 38.3251 78.0693 35.745C77.485 32.2893 75.4569 28.4451 72.2393 25.4905C72.6129 20.557 71.0279 16.3261 67.8652 13.6474C65.0583 11.27 60.7373 9.63582 56.1053 9.70375C54.0581 6.51376 51.1802 4.4508 47.8753 3.81784C45.5315 3.36897 42.774 3.51775 40.0238 4.33173C34.3042 2.84754 28.9969 3.61356 25.765 6.78523C25.2563 7.2845 24.7684 7.84428 24.3091 8.45653C16.888 8.50977 10.9994 11.9334 8.75209 16.8977C7.65831 19.3139 7.12491 22.395 7.37099 25.6167C3.66554 28.6678 1.74884 32.6699 1.96045 36.797C2.04415 38.4295 2.42966 40.1836 3.10639 41.9277C1.51739 46.88 2.15885 51.5758 4.80688 54.9926C5.59253 56.0064 6.57507 56.971 7.71337 57.8367C8.31469 67.4993 13.6422 73.7025 20.0436 74.6837C21.4533 74.8997 23.003 74.8969 24.6024 74.6641C26.7109 77.3991 29.4751 79.1185 32.5632 79.5918C34.9251 79.9538 37.6802 79.7013 40.4035 78.7823C43.115 80.1036 45.9777 80.4519 48.7056 79.7657C51.4015 79.0876 54.2781 77.4351 56.6872 74.992C61.1847 75.3224 65.0908 73.8606 67.6878 70.9082C70.0238 68.2527 71.7423 64.1537 71.9748 59.6595C75.0338 57.4914 76.9714 54.5126 77.5039 51.1385C77.8702 48.8173 77.678 46.1164 76.8774 43.4255Z" fill="white"/>
<path fill-rule="evenodd" clip-rule="evenodd" d="M75.7006 43.3775C76.8781 40.985 77.2845 38.4316 76.8601 35.9298C76.2917 32.5788 74.3186 28.8511 71.1884 25.986C71.5519 21.2021 70.0099 17.0993 66.9331 14.5018C64.2024 12.1965 59.9987 10.6118 55.4924 10.6776C53.5009 7.58432 50.7011 5.58387 47.4859 4.9701C45.2058 4.53482 42.5231 4.67909 39.8476 5.46841C34.2833 4.0292 29.12 4.77201 25.9759 7.84757C25.481 8.3317 25.0064 8.87453 24.5595 9.46822C17.3399 9.51984 11.6112 12.8397 9.42489 17.6536C8.3608 19.9966 7.84188 22.9843 8.08129 26.1084C4.47643 29.067 2.61178 32.9478 2.81764 36.9498C2.89907 38.5329 3.27411 40.2339 3.93246 41.9251C2.3866 46.7274 3.01065 51.2809 5.58679 54.5941C6.35111 55.5772 7.30697 56.5126 8.41436 57.352C8.99936 66.7218 14.1823 72.7371 20.4098 73.6885C21.7812 73.898 23.2889 73.8952 24.8449 73.6695C26.8961 76.3216 29.5853 77.9889 32.5896 78.4479C34.8873 78.7989 37.5676 78.5541 40.2169 77.6629C42.8548 78.9442 45.6399 79.2819 48.2936 78.6165C50.9163 77.959 53.7148 76.3565 56.0586 73.9875C60.4339 74.3078 64.234 72.8904 66.7605 70.0275C69.033 67.4524 70.7049 63.4776 70.9311 59.1196C73.907 57.0172 75.7921 54.1286 76.3101 50.8568C76.6664 48.6059 76.4794 45.9868 75.7006 43.3775ZM74.409 43.4631C75.5441 41.1494 75.9358 38.6803 75.5267 36.2608C74.9788 33.0203 73.077 29.4156 70.0598 26.6449C70.4101 22.0187 68.9238 18.0511 65.9581 15.5393C63.326 13.31 59.274 11.7775 54.9304 11.8412C53.0108 8.84988 50.3121 6.91538 47.2129 6.32184C45.0151 5.90092 42.4293 6.04043 39.8504 6.80372C34.4869 5.41196 29.5101 6.13028 26.4795 9.10445C26.0025 9.57262 25.5449 10.0975 25.1142 10.6717C18.1553 10.7216 12.6334 13.932 10.526 18.5872C9.50032 20.853 9.00013 23.7422 9.23089 26.7632C5.75618 29.6243 3.95884 33.3772 4.15727 37.2473C4.23576 38.7781 4.59726 40.423 5.23185 42.0585C3.7418 46.7025 4.34331 51.1059 6.82645 54.3099C7.56318 55.2605 8.48453 56.1651 9.55194 56.9768C10.1158 66.0378 15.1116 71.8547 21.1144 72.7748C22.4362 72.9774 23.8894 72.9747 25.3893 72.7564C27.3665 75.3211 29.9586 76.9334 32.8544 77.3773C35.0692 77.7168 37.6527 77.48 40.2064 76.6181C42.7491 77.8572 45.4336 78.1838 47.9915 77.5404C50.5196 76.9045 53.217 75.3548 55.4762 73.0639C59.6935 73.3737 63.3564 72.003 65.7917 69.2344C67.9822 66.7443 69.5937 62.9005 69.8118 58.6862C72.6802 56.6531 74.4972 53.8597 74.9965 50.6958C75.34 48.5191 75.1598 45.9864 74.409 43.4631Z" fill="white"/>
<path fill-rule="evenodd" clip-rule="evenodd" d="M52.2359 19.5142L52.2359 21.3592L55.8037 21.3592L55.8037 23.0988L51.9502 23.0988C51.1611 23.0988 50.5215 22.4498 50.5215 21.6491L50.5215 19.2243C50.5215 18.4237 51.1611 17.7747 51.9502 17.7747L58.2876 17.7747C59.0766 17.7747 59.7163 18.4237 59.7163 19.2243V21.3065L65.9786 21.3065C66.7677 21.3065 67.4073 21.9555 67.4073 22.7561V29.1609H69.6661C70.4552 29.1609 71.0948 29.8099 71.0948 30.6105V36.8308C71.0948 37.6314 70.4552 38.2805 69.6661 38.2805H67.1216C66.3325 38.2805 65.6929 37.6314 65.6929 36.8308V33.7207H67.4073V36.5409H69.3804V30.9005H63.5091V41.2588C63.5091 42.0594 62.8695 42.7084 62.0804 42.7084H55.7957C55.0067 42.7084 54.367 42.0594 54.367 41.2588L54.367 35.0122H52.1609C51.3718 35.0122 50.7322 34.3631 50.7322 33.5625L50.7322 26.288C50.7322 25.4874 51.3719 24.8384 52.1609 24.8384L58.0018 24.8384L58.0018 19.5142L52.2359 19.5142ZM56.0815 35.0122L56.0815 40.9689H61.7947V30.6105C61.7947 29.8099 62.4343 29.1609 63.2234 29.1609H65.6929V23.0461L59.7163 23.0461V25.1283C59.7163 25.9289 59.0766 26.5779 58.2876 26.5779L52.4466 26.5779L52.4466 29.1609H58.2876C59.0766 29.1609 59.7163 29.8099 59.7163 30.6105V33.5625C59.7163 34.3632 59.0766 35.0122 58.2876 35.0122H56.0815ZM52.4466 30.9005L52.4466 33.2726H54.367L54.367 30.9005L52.4466 30.9005ZM56.0815 30.9005V33.2726L58.0018 33.2726L58.0018 30.9005L56.0815 30.9005Z" fill="white"/>
<path fill-rule="evenodd" clip-rule="evenodd" d="M20.1038 44.4485L26.3885 44.4485C27.1775 44.4485 27.8172 45.0975 27.8172 45.8981V52.1447L30.0233 52.1447C30.8123 52.1447 31.452 52.7938 31.452 53.5944V60.8689C31.452 61.6695 30.8123 62.3186 30.0233 62.3186H24.1824L24.1824 67.6427H29.9483V65.7977L26.3805 65.7977V64.0581L30.234 64.0581C31.023 64.0581 31.6627 64.7072 31.6627 65.5078V67.9326C31.6627 68.7333 31.023 69.3823 30.234 69.3823H23.8966C23.1076 69.3823 22.4679 68.7332 22.4679 67.9326V65.8504H16.2056C15.4165 65.8504 14.7769 65.2014 14.7769 64.4008L14.7769 57.996H12.5181C11.729 57.996 11.0894 57.347 11.0894 56.5464L11.0894 50.3261C11.0894 49.5255 11.729 48.8765 12.5181 48.8765L15.0626 48.8765C15.8516 48.8765 16.4913 49.5255 16.4913 50.3261V53.4362H14.7769V50.616L12.8038 50.616V56.2565L18.6751 56.2564L18.6751 45.8981C18.6751 45.0975 19.3147 44.4485 20.1038 44.4485ZM16.4913 57.996V64.1109H22.4679L22.4679 62.0286C22.4679 61.228 23.1076 60.579 23.8966 60.579H29.7375V57.996L23.8966 57.996C23.1076 57.996 22.4679 57.347 22.4679 56.5464L22.4679 53.5944C22.4679 52.7938 23.1076 52.1447 23.8966 52.1447L26.1027 52.1447V46.1881H20.3895V56.5464C20.3895 57.347 19.7499 57.996 18.9608 57.996L16.4913 57.996ZM26.1027 53.8843H24.1824L24.1824 56.2565H26.1027V53.8843ZM27.8172 56.2565L29.7375 56.2564V53.8843H27.8172V56.2565Z" fill="white"/>
<path d="M16.3408 32.7685C16.3408 32.0949 16.8869 31.5488 17.5605 31.5488H37.1855C37.8591 31.5488 38.4052 32.0949 38.4052 32.7685C38.4052 33.4421 37.8591 33.9882 37.1855 33.9882H17.5605C16.8869 33.9882 16.3408 33.4421 16.3408 32.7685ZM25.9985 31.8378C25.9985 31.025 26.6575 30.366 27.4703 30.366C28.2831 30.366 28.9421 31.025 28.9421 31.8378V39.539C28.9421 40.3519 28.2831 41.0108 27.4703 41.0108C26.6575 41.0108 25.9985 40.3519 25.9985 39.539V31.8378ZM27.3109 25.9307C26.8414 25.9307 26.4607 26.3113 26.4607 26.7808C26.4607 27.2503 26.8414 27.6309 27.3109 27.6309H27.4108C27.8803 27.6309 28.2609 27.2503 28.2609 26.7808C28.2609 26.3113 27.8803 25.9307 27.4108 25.9307H27.3109ZM27.2985 22.2346C26.8358 22.2346 26.4607 22.6097 26.4607 23.0724C26.4607 23.5351 26.8358 23.9102 27.2985 23.9102H27.4231C27.8858 23.9102 28.2609 23.5351 28.2609 23.0724C28.2609 22.6097 27.8858 22.2346 27.4231 22.2346H27.2985ZM23.9794 23.521C23.9794 21.6266 25.5151 20.0909 27.4095 20.0909C29.3039 20.0909 30.8396 21.6266 30.8396 23.521V26.3692C30.8396 28.2636 29.3039 29.7993 27.4095 29.7993C25.5151 29.7993 23.9794 28.2636 23.9794 26.3692V23.521ZM26.1879 18.9962C26.3094 18.3427 26.9254 17.8695 27.5808 17.9802C28.3019 18.1019 28.7242 18.864 28.4442 19.5395C28.3116 19.8593 28.1825 20.1678 28.0593 20.4536C27.858 20.9204 27.3477 21.1628 26.8538 21.0425C26.2656 20.8992 25.9131 20.2985 26.0432 19.7073C26.095 19.472 26.144 19.2322 26.1879 18.9962ZM36.0316 27.4784C35.9002 26.9525 36.2115 26.4123 36.737 26.2792C37.2352 26.1531 37.7455 26.44 37.8802 26.9359C38.1111 27.7857 38.3256 28.703 38.478 29.4934C38.5711 29.9764 38.2688 30.4404 37.795 30.5723C37.2116 30.7349 36.6188 30.3325 36.5151 29.7358C36.39 29.0162 36.218 28.2248 36.0316 27.4784ZM21.3279 27.1639C21.2145 26.6338 21.5428 26.1047 22.0719 25.9864C22.5801 25.8728 23.0881 26.1808 23.2074 26.6877C23.4119 27.5566 23.6013 28.4947 23.7341 29.3096C23.8138 29.7993 23.4967 30.2592 23.0154 30.3796C22.4251 30.5272 21.8404 30.109 21.7533 29.5068C21.6454 28.7608 21.4933 27.9371 21.3279 27.1639ZM17.1193 25.6597C17.0714 25.4852 16.986 25.2079 16.8851 24.901C16.6448 24.1704 17.002 23.2062 17.4112 22.5549C17.6834 22.161 18.422 20.8382 18.9807 19.3542C19.2094 18.7467 19.8748 18.3985 20.4877 18.6121C21.1012 18.826 21.4086 19.5139 21.1252 20.0986C20.3402 21.7179 19.3399 23.3247 18.4499 24.4313C18.4388 24.445 18.4329 24.4619 18.4329 24.4796C18.4329 24.5082 18.4177 24.5342 18.3925 24.5479C18.1716 24.6683 17.1193 25.2627 17.1193 25.6597ZM17.1193 25.6597L17.094 24.8006C17.0794 24.3071 17.3171 23.8403 17.7246 23.5616C17.9337 23.4187 18.1766 23.333 18.4291 23.3132L20.3464 23.1628C20.9229 23.1175 21.3843 23.7023 21.3294 24.2779C21.2892 24.6988 20.971 24.9816 20.5514 25.0336C18.0775 25.3398 17.4759 25.4791 17.1193 25.6597ZM17.0463 30.5139C17.0319 30.4445 17.0116 30.3611 16.9865 30.2673C16.7161 29.2551 17.1806 27.8255 17.8734 27.0396C18.3954 26.4473 19.9749 24.3483 21.1504 22.1293C21.4596 21.5455 22.1882 21.3048 22.7646 21.6276C23.3125 21.9344 23.5051 22.631 23.1715 23.163C21.7444 25.4385 19.9546 27.6721 18.2368 29.3094C18.2222 29.3234 18.214 29.3426 18.214 29.3629C18.214 29.389 18.2008 29.4129 18.1785 29.4265C17.983 29.5461 17.0463 30.1387 17.0463 30.5139ZM17.0463 30.5139L17.0098 29.6758C16.9871 29.1559 17.2377 28.6619 17.6706 28.3732C17.8678 28.2416 18.0936 28.1591 18.3291 28.1325L21.8687 27.7322C22.4256 27.6692 22.8921 28.2235 22.859 28.7829C22.8341 29.2032 22.5231 29.4965 22.106 29.5541C18.2007 30.0926 17.4826 30.2813 17.0463 30.5139ZM31.5937 25.8075C31.544 25.6062 31.4537 25.302 31.346 24.9723C31.1144 24.263 31.4511 23.2521 31.8613 22.6289C32.1367 22.2105 32.8891 20.8255 33.4758 19.3077C33.7063 18.7112 34.3496 18.364 34.9629 18.5452C35.6222 18.7399 35.9723 19.4603 35.6783 20.0817C34.8809 21.7672 33.849 23.4212 32.9428 24.5614C32.9355 24.5706 32.9317 24.5819 32.9317 24.5936C32.9317 24.6128 32.9218 24.63 32.905 24.6393C32.7168 24.7428 31.5937 25.3786 31.5937 25.8075ZM31.5937 25.8075L31.5562 24.908C31.5342 24.3811 31.7917 23.8816 32.2336 23.5938C32.4365 23.4617 32.6683 23.3809 32.9093 23.3583L35.2599 23.1379C35.8705 23.0806 36.3691 23.6945 36.3148 24.3053C36.275 24.7534 35.9339 25.0555 35.4871 25.108C32.6248 25.4441 31.9749 25.6258 31.5937 25.8075ZM31.764 30.6617C31.7435 30.5829 31.7161 30.4846 31.6835 30.3726C31.3818 29.3369 31.8919 27.9596 32.5911 27.1381C33.133 26.547 34.7462 24.491 35.9622 22.287C36.2876 21.6972 37.0324 21.4605 37.6175 21.7943C38.1822 22.1165 38.3711 22.8421 38.0153 23.3862C36.5553 25.619 34.7531 27.848 33.0039 29.433C32.9888 29.4467 32.9803 29.466 32.9803 29.4863C32.9803 29.5122 32.967 29.5358 32.9446 29.549C32.7438 29.6671 31.764 30.2636 31.764 30.6617ZM31.764 30.6617L31.7299 29.8793C31.7059 29.3276 31.9812 28.8058 32.4503 28.5142C32.6548 28.3871 32.8864 28.3101 33.1263 28.2895L36.7787 27.9754C37.3475 27.9265 37.7985 28.5141 37.7421 29.0822C37.6989 29.5168 37.3688 29.8096 36.9346 29.8567C32.9619 30.2875 32.2225 30.4527 31.764 30.6617ZM22.0969 35.2429C22.4912 34.9361 23.0146 34.8176 23.4813 34.9961C24.2823 35.3024 24.5475 36.2962 23.9174 36.8779C22.4187 38.2616 20.4524 39.4122 18.4193 40.1097C17.9322 40.2768 17.4326 40.0955 17.1378 39.6732C16.6106 38.9181 16.9484 37.651 17.8246 37.3675C19.4703 36.8348 21.0068 36.0912 22.0969 35.2429ZM31.5351 37.0759C30.8409 36.6612 30.6924 35.7085 31.2445 35.1177C31.624 34.7117 32.2272 34.6054 32.7172 34.8675C34.2239 35.6734 35.9716 36.6931 37.2982 37.5983C37.9449 38.0395 38.0219 38.9368 37.5034 39.5234C36.9955 40.098 36.1127 40.15 35.499 39.69C34.3815 38.8523 32.9118 37.8985 31.5351 37.0759Z" fill="white"/>
<path d="M47.9668 56.7765C47.9668 56.2526 48.3916 55.8278 48.9155 55.8278H57.7219C58.2459 55.8278 58.6706 56.2526 58.6706 56.7765C58.6706 57.3004 58.2459 57.7252 57.7219 57.7252H48.9155C48.3916 57.7252 47.9668 57.3004 47.9668 56.7765ZM60.6834 60.8056C61.1769 60.445 61.8565 60.4453 62.3276 60.8348C62.9823 61.376 62.9365 62.3917 62.2156 62.841C60.9826 63.6095 59.6774 64.3351 58.5259 64.9094C58.1157 65.114 57.6234 65.0362 57.2876 64.7244C56.7108 64.1889 56.8466 63.2352 57.5292 62.8433C58.604 62.2263 59.7471 61.4899 60.6834 60.8056ZM47.8938 53.721C47.8938 53.1427 48.3627 52.6738 48.9411 52.6738H56.4777C58.7368 52.6738 60.5681 54.5051 60.5681 56.7642C60.5681 59.0232 58.7368 60.8545 56.4777 60.8545H48.9534C48.3682 60.8545 47.8938 60.3801 47.8938 59.795C47.8938 59.2098 48.3682 58.7354 48.9534 58.7354H55.641C56.7365 58.7354 57.6245 57.8473 57.6245 56.7518C57.6245 55.6563 56.7365 54.7683 55.641 54.7683H48.9411C48.3627 54.7683 47.8938 54.2994 47.8938 53.721ZM53.4101 46.5339C53.8656 46.2855 54.425 46.3546 54.8357 46.6716C56.8544 48.2295 59.9547 49.7097 62.9984 50.681C63.899 50.9684 64.2184 52.2285 63.6796 53.0051C63.3595 53.4665 62.8142 53.6416 62.2847 53.4547C59.1259 52.3398 55.7163 50.4964 53.1916 48.4279C52.5549 47.9062 52.6874 46.9281 53.4101 46.5339ZM52.055 45.7256C52.5177 45.2341 53.2456 45.0577 53.849 45.3604C54.6501 45.7624 54.8718 46.8043 54.2404 47.4405C51.7078 49.9922 48.3147 51.9846 44.7654 53.355C44.2196 53.5657 43.6444 53.3793 43.3114 52.8983C42.8098 52.1735 43.0494 51.0333 43.8758 50.7268C46.9958 49.57 50.0639 47.8406 52.055 45.7256ZM46.2153 68.1974C45.8137 66.9772 46.0703 65.3218 46.0932 64.0375C46.0935 64.0197 46.0937 64.0019 46.0937 63.9839V54.1091C46.0937 53.3164 46.7363 52.6738 47.5289 52.6738C48.3216 52.6738 48.9642 53.3164 48.9642 54.1091V61.6635C48.9642 64.084 46.2153 65.777 46.2153 68.1974ZM46.2153 68.1974L46.1602 67.2048C46.1192 66.464 46.4834 65.7594 47.1114 65.3646C47.3702 65.2018 47.6623 65.0994 47.9661 65.0647L53.2359 64.4635C53.9454 64.3826 54.553 65.0639 54.5518 65.778C54.5508 66.3604 54.1298 66.8068 53.5531 66.8876C47.918 67.6775 46.882 67.8714 46.2153 68.1974ZM53.5557 63.5528C52.8097 63.1586 52.6686 62.1355 53.297 61.5725C53.6498 61.2563 54.1564 61.1789 54.5841 61.3826C56.9107 62.4906 59.7293 63.9941 61.7642 65.2969C62.4906 65.762 62.5585 66.7705 61.9378 67.3696C61.4326 67.8573 60.645 67.8943 60.072 67.4884C58.3505 66.2688 55.8454 64.7627 53.5557 63.5528ZM50.1076 51.0352C50.1076 50.4977 50.5433 50.0619 51.0809 50.0619H55.7025C56.24 50.0619 56.6758 50.4977 56.6758 51.0352C56.6758 51.5728 56.24 52.0085 55.7025 52.0085H51.0809C50.5433 52.0085 50.1076 51.5728 50.1076 51.0352Z" fill="white"/>
</svg>
