<svg width="44" height="49" viewBox="0 0 44 49" fill="none" xmlns="http://www.w3.org/2000/svg">
<path opacity="0.4" d="M7.22857 8.60392L7.56509 10.3828M10.134 8.05427L10.4705 9.83311M12.6244 7.58315L12.9609 9.36198M15.5298 7.0335L15.8663 8.81234M18.0795 6.55116L18.15 8.87166M20.6292 6.06882L21.0554 8.32201M23.2381 5.57526L23.6644 7.82845M26.1484 5.70029L26.4512 7.30124M28.9352 5.17308L29.2381 6.77403M31.3663 4.71317L31.6692 6.31412M9.73333 12.4292L20.4064 10.4101M23.6275 10.2307L27.8967 9.42304M33.7989 14.3253L34.7299 19.2468M7.3999 22.8202C13.6467 21.5361 26.8729 19.0749 29.8036 19.5031M9.25545 42.3682C15.1374 42.4019 28.2377 41.8725 33.5839 39.4854M5.37283 7.23531C5.05644 9.19769 5.41444 12.325 5.41444 12.325C4.88825 14.7379 3.92014 20.3339 4.25728 23.4147C4.67871 27.2656 5.95256 44.7127 8.56471 46.1838C10.6544 47.3608 28.6095 44.3571 37.3258 42.7082C38.6698 41.6965 41.4598 38.9781 41.8675 36.1987C42.3771 32.7243 38.6498 13.3462 35.5361 6.62666C34.6567 1.97796 34.0383 1.95573 33.8391 2.52571C33.8391 2.52571 15.1323 1.70403 5.37283 7.23531ZM13.5698 16.801C13.3118 15.4373 15.615 14.3014 18.0137 13.995C21.0121 13.612 22.8129 14.3658 22.9383 15.0287C23.2749 16.8076 20.3505 17.8605 18.2171 18.01C15.1224 18.227 14.1177 18.4171 13.5698 16.801Z" stroke="#E3D8C6" stroke-width="2" stroke-linecap="round"/>
<path d="M27.5507 32.6819C27.4332 32.6948 27.3664 32.6285 27.3504 32.4831L27.1709 30.8495C27.0952 31.1584 27.0154 31.4005 26.9313 31.5757C26.8296 31.7904 26.737 31.9023 26.6535 31.9115C26.539 31.9241 26.475 31.8685 26.4614 31.7448C26.4539 31.6767 26.4744 31.6071 26.523 31.536C26.7929 31.1431 26.9703 30.6915 27.0551 30.1811L26.5214 30.2398C26.3822 30.2551 26.3058 30.2009 26.2922 30.0771C26.2789 29.9565 26.3419 29.8885 26.4811 29.8732L27.0566 29.8099L26.9306 28.6636C26.9146 28.5182 26.967 28.4388 27.0876 28.4256C27.2083 28.4123 27.2766 28.4784 27.2926 28.6238L27.4186 29.7701L27.7667 29.7319C27.8317 29.7247 27.8829 29.7348 27.9203 29.762C27.9577 29.7892 27.9797 29.8322 27.9861 29.8909C27.9997 30.0147 27.94 30.0839 27.807 30.0985L27.4589 30.1368L27.515 30.6473C27.5398 30.6164 27.5723 30.5987 27.6125 30.5943C27.6837 30.5865 27.7993 30.6693 27.9592 30.8427C28.1298 31.0275 28.218 31.1462 28.2238 31.1988C28.2367 31.3164 28.186 31.3814 28.0715 31.394C28.0158 31.4001 27.9315 31.3311 27.8186 31.187L27.5472 30.8551L27.5359 30.8376L27.7124 32.4433C27.7284 32.5888 27.6745 32.6683 27.5507 32.6819ZM26.2743 29.0598C26.2699 29.0196 26.2802 28.9856 26.3054 28.9578C26.3302 28.9269 26.3673 28.9087 26.4168 28.9033C26.4601 28.8985 26.501 28.9144 26.5395 28.9508C26.5807 28.9839 26.616 29.0348 26.6455 29.1036L26.7396 29.3187C26.7766 29.3992 26.7967 29.4533 26.7997 29.4812C26.8126 29.5987 26.7603 29.664 26.6427 29.6769C26.5994 29.6817 26.5618 29.667 26.5299 29.633C26.498 29.5989 26.4652 29.543 26.4316 29.4653L26.3879 29.3667C26.3166 29.2024 26.2787 29.1 26.2743 29.0598ZM27.5618 29.4491C27.5574 29.4089 27.5635 29.3362 27.5801 29.231L27.6145 28.9454C27.6256 28.8189 27.6792 28.7504 27.7751 28.7399C27.8277 28.7341 27.871 28.7434 27.905 28.7679C27.939 28.7923 27.9589 28.8308 27.9646 28.8834C27.9735 28.9639 27.9534 29.1227 27.9043 29.3598C27.8746 29.4883 27.8179 29.5572 27.7344 29.5663C27.688 29.5714 27.6481 29.5649 27.6148 29.5466C27.5842 29.5249 27.5666 29.4924 27.5618 29.4491ZM27.9275 32.3915C27.9231 32.3513 27.9406 32.3118 27.9802 32.273C28.0198 32.2342 28.0881 32.186 28.1851 32.1284C28.6395 31.8467 28.8317 31.3449 28.7618 30.623L28.4183 30.6607C28.3657 30.6665 28.3238 30.6555 28.2926 30.6276C28.2613 30.5997 28.2428 30.5595 28.237 30.5069C28.2241 30.3893 28.2795 30.3237 28.4033 30.3101L29.8327 30.153C30.0957 30.1241 30.2396 30.2226 30.2644 30.4484L30.3048 31.2002C30.3297 31.6265 30.2969 31.926 30.2062 32.0988C30.1205 32.2585 29.8981 32.3581 29.5392 32.3976C29.3969 32.4132 29.3184 32.3545 29.3038 32.2215C29.2895 32.0915 29.3824 32.0109 29.5825 31.9795C29.7919 31.9471 29.9078 31.8764 29.9303 31.7675C29.9697 31.5564 29.9607 31.1895 29.9032 30.6666C29.891 30.5552 29.8292 30.5057 29.7178 30.5179L29.1145 30.5842C29.1426 30.9538 29.1186 31.2774 29.0427 31.555C28.974 31.8131 28.8319 32.0447 28.6165 32.25C28.5201 32.342 28.4295 32.4146 28.3445 32.4678C28.2595 32.521 28.1877 32.5508 28.1289 32.5573C28.0082 32.5705 27.9411 32.5153 27.9275 32.3915ZM27.8405 30.4894C27.8351 30.4399 27.8474 30.3947 27.8773 30.3538C27.9803 30.2079 28.0685 30.0275 28.1419 29.8128C28.2151 29.5949 28.275 29.3707 28.3217 29.1401C28.3379 29.06 28.3579 28.9999 28.3817 28.9597C28.4085 28.9192 28.4436 28.8966 28.4869 28.8918C28.6076 28.8785 28.6737 28.9245 28.6853 29.0297C28.6955 29.1225 28.6576 29.3052 28.5717 29.5776C28.4651 29.9182 28.3556 30.1901 28.2433 30.3934C28.1655 30.5398 28.0941 30.6165 28.0291 30.6237C27.9734 30.6298 27.9286 30.6206 27.8946 30.5962C27.8636 30.5714 27.8456 30.5358 27.8405 30.4894ZM28.7745 28.5596C28.7613 28.4389 28.8103 28.3725 28.9217 28.3602L29.3301 28.3153C29.4477 28.3024 29.5377 28.3238 29.6002 28.3796C29.6627 28.4353 29.7074 28.5291 29.7344 28.6607C29.8452 29.2122 30.1018 29.6381 30.5043 29.9383C30.5417 29.9655 30.5638 30.01 30.5706 30.0719C30.5856 30.208 30.5312 30.2829 30.4074 30.2965C30.2867 30.3098 30.1171 30.1765 29.8985 29.8968C29.6874 29.6288 29.5275 29.2847 29.4187 28.8645C29.4026 28.8037 29.3789 28.7593 29.3477 28.7314C29.3164 28.7036 29.2759 28.6908 29.226 28.6931L28.9615 28.7222C28.8501 28.7345 28.7878 28.6802 28.7745 28.5596Z" fill="#E3D8C6"/>
<path d="M20.9051 33.3607C20.7968 33.3726 20.7364 33.3213 20.7238 33.2068C20.7149 33.1264 20.7807 33.0549 20.921 32.9925C21.1091 32.9092 21.3093 32.7792 21.5216 32.6024C21.3832 32.483 21.2658 32.3409 21.1695 32.1761C20.997 32.4018 20.8736 32.5187 20.7994 32.5268C20.7003 32.5377 20.6451 32.4905 20.6335 32.3853C20.6281 32.3358 20.6553 32.2843 20.7151 32.2308C20.9116 32.0526 21.0884 31.8093 21.2455 31.5008C21.3024 31.3912 21.3556 31.3337 21.4051 31.3283C21.5103 31.3167 21.5673 31.3511 21.5761 31.4316C21.5795 31.4625 21.5568 31.5261 21.5078 31.6223L22.1715 31.5493C22.2612 31.5395 22.3281 31.5493 22.372 31.579C22.416 31.6086 22.4419 31.659 22.4497 31.7301C22.4538 31.7672 22.4455 31.8198 22.4248 31.8879C22.4068 31.9525 22.3772 32.0246 22.3358 32.1043C22.2631 32.2407 22.1543 32.3904 22.0094 32.5535C22.3372 32.6866 22.7904 32.7213 23.3689 32.6577C23.536 32.6394 23.7229 32.6157 23.9295 32.5867C24.1361 32.5578 24.2795 32.5373 24.3596 32.5254L24.7339 32.4701C24.7986 32.4599 24.8498 32.4699 24.8876 32.5002C24.9281 32.5271 24.9516 32.5699 24.958 32.6287C24.9733 32.7679 24.8835 32.8483 24.6886 32.8697C24.1193 32.9322 23.7154 32.9751 23.4768 32.9982C23.0526 33.0417 22.6925 33.0421 22.3966 32.9995C22.1801 32.9669 21.9769 32.8984 21.7869 32.794C21.4063 33.149 21.1124 33.3379 20.9051 33.3607ZM20.4916 31.6494C20.4861 31.5999 20.4958 31.5597 20.5206 31.5288C20.5481 31.4945 20.5934 31.4503 20.6563 31.3965C20.8077 31.264 20.9323 31.1438 21.0301 31.036C21.1275 30.9251 21.2166 30.8104 21.2975 30.6919L21.1996 29.8008L20.4988 29.8778C20.3782 29.8911 20.3122 29.8467 20.301 29.7446C20.2898 29.6425 20.3445 29.5848 20.4652 29.5715L21.1659 29.4945L21.1399 29.2578C21.1273 29.1433 21.1752 29.0802 21.2835 29.0683C21.3918 29.0563 21.4522 29.1076 21.4648 29.2221L21.4908 29.4588L22.1127 29.3905C22.2334 29.3772 22.2993 29.4216 22.3105 29.5237C22.3218 29.6258 22.267 29.6835 22.1464 29.6968L21.5245 29.7651L21.6449 30.8604C21.6696 30.8295 21.7021 30.8118 21.7424 30.8074C21.7826 30.803 21.9269 30.8623 22.1753 30.9853C22.4267 31.1079 22.5569 31.2095 22.5657 31.2899C22.5708 31.3363 22.5625 31.3748 22.5408 31.4054C22.5188 31.4329 22.483 31.4493 22.4335 31.4548C22.3964 31.4589 22.2899 31.4017 22.1141 31.2832L21.707 31.0414L21.6607 31.0043L21.6739 31.1249C21.68 31.1806 21.6709 31.2255 21.6464 31.2595C21.622 31.2935 21.5835 31.3133 21.5309 31.3191C21.4226 31.331 21.362 31.2782 21.3491 31.1606L21.3348 31.0307C21.2521 31.1619 21.1371 31.3123 20.9898 31.4819C20.8346 31.665 20.7229 31.7602 20.6549 31.7677C20.6054 31.7731 20.5669 31.7648 20.5394 31.7428C20.5119 31.7208 20.496 31.6896 20.4916 31.6494ZM20.4197 30.9105C20.415 30.8672 20.4252 30.8175 20.4503 30.7615C20.5561 30.5276 20.6222 30.3309 20.6485 30.1714C20.6786 30.0178 20.7308 29.9369 20.805 29.9287C20.8978 29.9185 20.949 29.9567 20.9585 30.0434C20.9619 30.0743 20.9567 30.1125 20.9429 30.1578C20.9291 30.2032 20.9205 30.2386 20.917 30.264C21.1372 30.4152 21.2501 30.517 21.2559 30.5696C21.2658 30.6594 21.2289 30.7088 21.1454 30.718C21.1021 30.7228 21.0588 30.6993 21.0156 30.6477L20.858 30.496L20.8482 30.4923C20.7422 30.839 20.6489 31.0153 20.5681 31.021C20.5213 31.023 20.4861 31.0159 20.4624 30.9997C20.4384 30.9805 20.4242 30.9507 20.4197 30.9105ZM21.3311 31.9376C21.4491 32.1282 21.5832 32.2794 21.7333 32.3913C21.9511 32.1513 22.0625 31.9825 22.0675 31.8849L22.0669 31.8802C22.0639 31.8524 22.0391 31.841 21.9927 31.8461L21.343 31.9175L21.3311 31.9376ZM21.6689 30.6088C21.6675 30.5964 21.6792 30.5607 21.7041 30.5016C21.7106 30.4758 21.7248 30.4336 21.7465 30.3748C21.7986 30.2219 21.8346 30.0943 21.8547 29.9919C21.8786 29.8671 21.9245 29.801 21.9926 29.7935C22.0885 29.783 22.1411 29.8195 22.1502 29.903C22.1543 29.9401 22.1481 29.9831 22.1315 30.0319L22.0937 30.1582C22.3569 30.3015 22.4929 30.4133 22.5017 30.4938C22.5126 30.5928 22.4701 30.6476 22.3741 30.6581C22.3432 30.6615 22.2809 30.6214 22.1871 30.5377C22.104 30.4655 22.0472 30.4185 22.0166 30.3968C21.9918 30.4841 21.9609 30.5595 21.9241 30.623C21.8896 30.68 21.8569 30.7103 21.826 30.7137C21.7301 30.7242 21.6777 30.6892 21.6689 30.6088ZM22.3123 29.3685C22.301 29.2664 22.3527 29.2091 22.4671 29.1965L24.3235 28.9925C24.438 28.9799 24.5009 29.0246 24.5121 29.1267C24.523 29.2258 24.4712 29.2815 24.3567 29.2941L23.5213 29.3859L23.4627 29.7071L23.4528 29.788L23.4367 29.8556L24.1329 29.779C24.2504 29.7661 24.3386 29.7846 24.3973 29.8345C24.4557 29.8813 24.4882 29.9639 24.495 30.0821L24.6985 31.9339C24.7121 32.0576 24.6957 32.1503 24.6492 32.2117C24.6055 32.2698 24.5258 32.3004 24.4103 32.3037L23.1526 32.442C23.0382 32.4545 22.9517 32.4374 22.8934 32.3906C22.835 32.3438 22.8024 32.2613 22.7957 32.143L22.5922 30.2913C22.5786 30.1675 22.5935 30.0751 22.6368 30.0139C22.6833 29.9524 22.7628 29.9202 22.8752 29.9173L23.1536 29.8867L23.1918 29.4222L22.5003 29.4982C22.3858 29.5107 22.3231 29.4675 22.3123 29.3685ZM23.0763 32.0464C23.0844 32.1207 23.1241 32.1539 23.1953 32.1461L23.3345 32.1308L23.1203 30.1815L22.981 30.1969C22.9099 30.2047 22.8784 30.2457 22.8865 30.32L23.0763 32.0464ZM23.8914 32.0696L23.8333 31.5405L23.5409 31.5726L23.599 32.1017L23.8914 32.0696ZM23.8042 31.2759L23.7547 30.8258L23.4623 30.8579L23.5118 31.3081L23.8042 31.2759ZM23.7251 30.5566L23.6772 30.1203L23.3848 30.1525L23.4328 30.5887L23.7251 30.5566ZM24.2998 32.0247C24.337 32.0206 24.3622 32.0084 24.3757 31.9881C24.3891 31.9679 24.3953 31.939 24.3943 31.9016L24.2046 30.1751C24.1964 30.1008 24.1568 30.0676 24.0856 30.0755L23.9371 30.0918L24.1513 32.041L24.2998 32.0247Z" fill="#E3D8C6"/>
<path d="M17.312 33.6522C16.7582 33.7131 16.3634 33.7251 16.1277 33.6884C15.895 33.6514 15.6947 33.5669 15.5268 33.4351L15.517 33.4315C15.2454 33.7243 15.0633 33.8759 14.9704 33.8861C14.8498 33.8993 14.7816 33.8348 14.766 33.6925C14.7551 33.5935 14.8162 33.5085 14.9493 33.4375C15.0205 33.4015 15.1358 33.3246 15.295 33.2069L15.2007 32.3483C15.1901 32.2524 15.1369 32.2097 15.041 32.2203L14.7904 32.2478C14.6604 32.2621 14.5892 32.212 14.5766 32.0975C14.5643 31.9861 14.6232 31.9233 14.7531 31.909L15.1151 31.8692C15.2482 31.8546 15.3489 31.8733 15.4172 31.9253C15.4852 31.9742 15.5229 32.0608 15.5303 32.1853L15.6339 33.1274L15.7771 33.2338C15.9959 33.3726 16.4549 33.4035 17.1541 33.3267L18.7996 33.127C18.9172 33.1141 18.9823 33.1649 18.9949 33.2794C19.0088 33.4062 18.9261 33.4795 18.7466 33.4992L17.312 33.6522ZM14.5392 30.9884C14.526 30.8678 14.5797 30.8008 14.7003 30.7875C14.7498 30.7821 14.883 30.8113 15.0998 30.8751C15.3105 30.9397 15.4209 31.0183 15.4311 31.1112C15.445 31.238 15.3917 31.3081 15.271 31.3213C15.2339 31.3254 15.1791 31.3111 15.1066 31.2783L14.703 31.1536C14.6023 31.1208 14.5477 31.0658 14.5392 30.9884ZM14.6599 30.078C14.6467 29.9574 14.6988 29.8906 14.8164 29.8776C14.8566 29.8732 14.9838 29.9046 15.1978 29.9719C15.2985 30.0047 15.3763 30.0431 15.4313 30.0872C15.4859 30.1282 15.5159 30.1734 15.5213 30.2229C15.5356 30.3528 15.4824 30.4244 15.3618 30.4377C15.3432 30.4398 15.308 30.4327 15.2561 30.4164C15.2069 30.3968 15.1774 30.3844 15.1674 30.3792L14.8438 30.2551C14.7294 30.2113 14.6681 30.1523 14.6599 30.078ZM15.713 32.4799C15.7015 32.3747 15.7483 32.3163 15.8535 32.3048L16.4939 32.2344L16.4603 31.9281L15.9776 31.9811C15.8724 31.9927 15.8142 31.9474 15.803 31.8453C15.7918 31.7432 15.8387 31.6864 15.9439 31.6748L16.4266 31.6218L16.4128 31.4965C16.4067 31.4408 16.4176 31.3973 16.4455 31.366C16.473 31.3317 16.5162 31.3113 16.575 31.3048C16.6337 31.2984 16.6803 31.3089 16.7146 31.3365C16.7517 31.3606 16.7733 31.4005 16.7795 31.4562L16.7932 31.5815L17.5358 31.4998L17.522 31.3745C17.5094 31.2601 17.5635 31.1962 17.6841 31.1829C17.8017 31.17 17.8668 31.2208 17.8794 31.3353L17.8931 31.4606L18.3851 31.4065C18.4903 31.3949 18.5485 31.4402 18.5597 31.5423C18.5709 31.6444 18.524 31.7012 18.4188 31.7128L17.9268 31.7669L17.9605 32.0732L18.6195 32.0008C18.6721 31.995 18.7138 32.0045 18.7448 32.0293C18.7757 32.054 18.794 32.0927 18.7998 32.1453C18.8052 32.1948 18.7956 32.235 18.7708 32.2659C18.746 32.2969 18.7073 32.3152 18.6547 32.321L15.8887 32.625C15.7835 32.6365 15.7249 32.5882 15.713 32.4799ZM15.9392 33.0844C15.9296 32.9978 15.9763 32.9379 16.0791 32.9047L16.5052 32.7216L16.7766 32.5838L16.8132 32.575C16.8682 32.5627 16.9113 32.5705 16.9426 32.5984C16.9735 32.6232 16.9922 32.665 16.9986 32.7238C17.0031 32.764 16.9752 32.8093 16.9149 32.8598C16.8578 32.9099 16.7643 32.9703 16.6342 33.0409C16.3976 33.1671 16.2282 33.2359 16.1261 33.2471C16.0148 33.2593 15.9524 33.2051 15.9392 33.0844ZM15.6694 30.1597C15.6599 30.073 15.6723 30.0012 15.7068 29.9442C15.7409 29.8841 15.8306 29.846 15.976 29.83L16.5376 29.7683C16.782 29.7415 16.9153 29.8286 16.9374 30.0297L16.9644 30.2757C16.975 30.3716 16.9537 30.4491 16.9007 30.5081C16.8474 30.5641 16.7652 30.5997 16.6541 30.6151L16.0838 30.6824L16.1083 30.9052C16.1131 30.9485 16.1269 30.9752 16.15 30.9852C16.1891 30.9997 16.2474 31.0027 16.3247 30.9942C16.5506 30.9693 16.6749 30.9463 16.6976 30.925C16.7203 30.9037 16.7375 30.8611 16.7493 30.7972C16.7607 30.7302 16.816 30.6912 16.915 30.6803C16.9737 30.6739 17.02 30.6813 17.0536 30.7027C17.0904 30.7237 17.1111 30.7559 17.1159 30.7992C17.1329 30.9539 17.0907 31.0681 16.9892 31.1419C16.9135 31.194 16.7442 31.2346 16.4812 31.2635C16.2182 31.2924 16.0484 31.3001 15.9717 31.2866C15.9078 31.2748 15.8599 31.2519 15.828 31.2178C15.7957 31.1807 15.776 31.1296 15.7688 31.0646L15.6694 30.1597ZM16.5039 30.3592C16.5781 30.351 16.6146 30.3125 16.6133 30.2438L16.6016 30.137C16.5951 30.0783 16.5517 30.0533 16.4712 30.0621L16.1417 30.0983C16.0613 30.1072 16.0246 30.1441 16.0318 30.2091L16.0537 30.4086L16.5039 30.3592ZM17.6031 32.1125L17.5695 31.8062L16.8269 31.8878L16.8606 32.1941L17.6031 32.1125ZM17.0942 30.0031C17.0727 29.8081 17.1811 29.6976 17.4194 29.6714L18.0366 29.6036C18.1604 29.59 18.2544 29.6047 18.3186 29.6477C18.3859 29.6904 18.4255 29.7659 18.4374 29.8742L18.4635 30.1109C18.474 30.2068 18.4528 30.2843 18.3998 30.3434C18.3464 30.3993 18.2642 30.435 18.1532 30.4503L17.4947 30.5274L17.5186 30.7455C17.5258 30.8105 17.5701 30.8432 17.6516 30.8436L17.9444 30.8161C18.1493 30.7999 18.2578 30.7613 18.2699 30.7005C18.2979 30.5847 18.3629 30.5212 18.465 30.51C18.5238 30.5035 18.5701 30.511 18.6037 30.5323C18.6405 30.5533 18.6614 30.587 18.6665 30.6334C18.6811 30.7665 18.6501 30.8685 18.5733 30.9396C18.4904 31.0113 18.2803 31.0657 17.9431 31.1028C17.6646 31.1334 17.4809 31.1426 17.3919 31.1305C17.3348 31.1243 17.2886 31.1027 17.2532 31.0659C17.2206 31.0256 17.2008 30.973 17.1936 30.9081L17.0942 30.0031ZM17.5695 32.661C17.5566 32.5434 17.6104 32.478 17.7311 32.4648C17.762 32.4614 17.81 32.4702 17.8749 32.4912C18.0697 32.5544 18.2852 32.6058 18.5213 32.6456C18.7189 32.6772 18.8228 32.7393 18.833 32.8321C18.8463 32.9528 18.7879 33.0203 18.658 33.0346C18.5435 33.0472 18.3371 33.0072 18.0389 32.9147C17.7341 32.8198 17.5776 32.7353 17.5695 32.661ZM18.0076 30.1939C18.0787 30.1861 18.1137 30.1478 18.1124 30.079L18.1006 29.9723C18.0942 29.9135 18.0523 29.8884 17.9749 29.8969L17.5665 29.9418C17.483 29.9509 17.4448 29.988 17.4519 30.053L17.4739 30.2525L18.0076 30.1939Z" fill="#E3D8C6"/>
<path d="M9.76944 34.6362C9.65187 34.6491 9.58527 34.5844 9.56962 34.4421L9.38447 32.7574C9.32249 33.1337 9.25633 33.415 9.18599 33.6012C9.1184 33.784 9.04284 33.88 8.9593 33.8892C8.8572 33.9004 8.79866 33.8379 8.7837 33.7018C8.77656 33.6368 8.79521 33.5643 8.83965 33.4843C9.02429 33.1415 9.16816 32.6982 9.27124 32.1546L8.86747 32.1989C8.73443 32.2136 8.66196 32.1667 8.65005 32.0584C8.63747 31.944 8.6977 31.8794 8.83074 31.8648L9.28092 31.8153L9.14881 30.6133C9.13317 30.471 9.18413 30.3933 9.3017 30.3804C9.42237 30.3672 9.49052 30.4317 9.50617 30.574L9.63828 31.776L9.98635 31.7378C10.1194 31.7232 10.1922 31.7731 10.2048 31.8876C10.2167 31.9958 10.1561 32.0573 10.0231 32.0719L9.675 32.1102L9.7306 32.616C9.75712 32.5724 9.79822 32.5476 9.85392 32.5414C9.9127 32.535 10.0197 32.625 10.1748 32.8115C10.3306 33.0041 10.4116 33.1283 10.4177 33.184C10.4286 33.283 10.3815 33.3383 10.2763 33.3499C10.2113 33.357 10.1471 33.314 10.0836 33.2207L9.74641 32.7599L9.92698 34.4028C9.94262 34.5452 9.89011 34.6229 9.76944 34.6362ZM8.57344 31.0194C8.56834 30.973 8.57852 30.9374 8.60398 30.9127C8.62911 30.8849 8.66488 30.8685 8.71129 30.8634C8.79482 30.8542 8.87498 30.9424 8.95176 31.1281C9.02408 31.3018 9.06279 31.4119 9.06789 31.4583C9.07877 31.5573 9.03161 31.6126 8.92642 31.6241C8.84907 31.6326 8.77115 31.5363 8.69268 31.3351C8.61386 31.1308 8.57412 31.0256 8.57344 31.0194ZM9.8441 30.8281C9.85035 30.771 9.8937 30.7381 9.97414 30.7293C10.0762 30.718 10.1329 30.7635 10.1441 30.8656L10.143 30.9408C10.1096 31.3203 10.0387 31.516 9.9304 31.5279C9.83449 31.5384 9.78143 31.4973 9.77123 31.4044L9.8441 30.8281ZM10.3202 31.9547C10.309 31.8526 10.3622 31.7951 10.4797 31.7822L11.3754 31.6837L11.3443 31.4006L10.6807 31.4736C10.5693 31.4858 10.5083 31.444 10.4978 31.3481C10.4872 31.2522 10.5376 31.1981 10.649 31.1858L11.3127 31.1129L11.2831 30.8437L10.4431 30.936C10.3286 30.9486 10.2658 30.9039 10.2545 30.8018C10.2433 30.6997 10.2949 30.6423 10.4094 30.6297L11.2494 30.5374L11.2301 30.3611C11.2165 30.2373 11.2684 30.169 11.386 30.156C11.4448 30.1496 11.4898 30.1603 11.5211 30.1882C11.552 30.213 11.571 30.2578 11.5781 30.3228L11.5975 30.4992L12.4468 30.4058C12.5644 30.3929 12.6288 30.4375 12.64 30.5396C12.6512 30.6417 12.5981 30.6992 12.4805 30.7121L11.6312 30.8055L11.6608 31.0746L12.343 30.9997C12.4513 30.9878 12.5107 31.0298 12.5212 31.1257C12.5318 31.2216 12.4829 31.2755 12.3746 31.2874L11.6924 31.3624L11.7235 31.6455L12.6656 31.5419C12.7801 31.5294 12.843 31.5741 12.8542 31.6762C12.8654 31.7783 12.8138 31.8357 12.6993 31.8482L10.5134 32.0885C10.3958 32.1014 10.3314 32.0568 10.3202 31.9547ZM10.6385 32.6713C10.6106 32.4176 10.7235 32.2768 10.9772 32.2489L12.2303 32.1112C12.484 32.0833 12.6248 32.1962 12.6527 32.4499L12.8016 33.8051C12.819 33.9629 12.796 34.0812 12.7326 34.1602C12.6724 34.2389 12.5634 34.2869 12.4056 34.3042L12.1689 34.3302C12.1039 34.3374 12.0527 34.3273 12.0153 34.3001C11.9782 34.276 11.9567 34.2377 11.951 34.1851C11.9384 34.0706 11.9986 34.006 12.1316 33.9914L12.3266 33.97C12.373 33.9649 12.407 33.9471 12.4287 33.9165C12.4538 33.8887 12.4639 33.8516 12.4588 33.8052L12.4287 33.5314L11.0967 33.6777L11.162 34.2718C11.1763 34.4017 11.1262 34.473 11.0117 34.4856C10.8972 34.4982 10.8328 34.4395 10.8186 34.3095L10.6385 32.6713ZM12.3955 33.2297L12.3695 32.993L11.0375 33.1394L11.0635 33.3761L12.3955 33.2297ZM12.3363 32.6913L12.3205 32.5475C12.311 32.4608 12.2629 32.4223 12.1763 32.4318L11.1042 32.5496C11.0176 32.5591 10.979 32.6072 10.9886 32.6939L11.0044 32.8377L12.3363 32.6913Z" fill="#E3D8C6"/>
</svg>
