<svg width="107" height="49" viewBox="0 0 107 49" fill="none" xmlns="http://www.w3.org/2000/svg">
<path d="M27.1062 8.72844C31.9189 5.12154 43.9067 -1.3053 53.357 1.84254C54.6695 8.66285 60.9041 10.5865 63.8573 10.6958C70.2012 10.5865 83.4797 11.9418 85.8423 18.2375C85.8423 24.0086 84.7485 27.2001 84.2016 28.0745M27.1062 8.72844C25.3562 8.72844 20.8061 8.20379 16.6059 6.10522C12.4058 7.1545 13.7621 13.5376 14.9653 16.598L21.8561 19.877M27.1062 8.72844C44.9349 15.1771 81.3141 28.0745 84.2016 28.0745M84.2016 28.0745C85.2954 28.0745 87.5486 28.7303 87.8111 31.3535C88.1392 34.6325 87.483 40.8626 84.2016 39.551C81.5766 38.5017 78.7327 37.5836 77.6389 37.2557M77.6389 37.2557C73.4826 43.4858 59.6572 53.3228 37.6065 42.83C21.8561 36.5343 20.5435 24.9048 21.8561 19.877M77.6389 37.2557C77.6389 37.2557 63.8573 31.3535 51.3882 29.714C38.919 28.0745 21.8561 19.877 21.8561 19.877M3.48053 1.84254C1.94924 4.57503 -0.457083 10.6958 2.16799 13.319M98.9677 37.2557C99.7333 37.9115 100.805 39.9445 98.9677 42.83M104.546 39.551C105.093 39.4417 105.859 39.9445 104.546 42.83" stroke="#E3D8C6" stroke-width="2"/>
</svg>
