<svg width="88" height="63" viewBox="0 0 88 63" fill="none" xmlns="http://www.w3.org/2000/svg">
<path d="M61.7301 56.5745L1.21379 40.66C1.21379 40.66 4.99776 4.41575 10.0182 1.33811C11.8013 -0.249131 36.7654 6.17884 38.3071 6.72136C39.8489 7.26388 61.4861 13.8641 72.1121 17.0963M61.7301 56.5745C62.5147 56.4762 64.1651 55.5813 64.4899 52.7881C65.153 50.2667 69.8476 27.943 72.1121 17.0963M61.7301 56.5745C61.7301 56.5745 72.2719 62.4015 79.241 61.1795C84.6102 47.9037 87.4774 21.594 86.6956 20.9315C85.9848 20.3292 78.2615 18.4807 73.4558 17.3965M72.1121 17.0963C72.5242 17.1874 72.9754 17.2881 73.4558 17.3965M73.4558 17.3965C72.4504 22.157 70.4525 31.9326 70.5033 32.9512C70.5668 34.2244 67.6374 43.8491 67.4126 44.7038C67.1878 45.5586 64.652 56.9323 64.3991 57.8939M77.166 21.681L83.7658 23.4166L82.951 26.515L76.3512 24.7794L77.166 21.681ZM75.3153 27.4199L74.8058 30.6557L81.7782 32.4893L82.2345 29.2395L75.3153 27.4199ZM73.7559 33.3497L81.0477 35.2672L80.6684 36.7096L73.696 34.876L73.7559 33.3497ZM73.3307 36.265L73.2737 37.5636L79.9238 39.5409L80.3031 38.0986L73.3307 36.265ZM76.4013 40.3851C77.6225 40.9348 79.7529 42.6145 78.5049 44.9364C76.9449 47.8389 75.1132 47.0145 74.1551 46.7626C73.6973 46.6421 70.6615 46.415 71.6449 42.6755C72.4316 39.6839 74.7888 39.8088 75.869 40.2452L76.4013 40.3851ZM74.294 48.3983C75.5152 48.9479 77.6456 50.6276 76.3976 52.9496C74.8377 55.8521 73.0059 55.0277 72.0478 54.7757C71.59 54.6553 68.5542 54.4281 69.5376 50.6886C70.3243 47.6971 72.6815 47.8219 73.7618 48.2583L74.294 48.3983ZM14.8911 4.44728L14.1043 7.43886L67.9092 20.9601L68.5414 18.5562L14.8911 4.44728ZM12.8815 9.05921L6.52243 38.0008L59.747 51.9978L67.6156 24.0243C67.3517 23.4408 66.6004 22.2152 65.7063 21.98C64.8121 21.7449 30.1172 13.2682 12.8815 9.05921Z" stroke="#E3D8C6" stroke-width="2" stroke-linecap="round" stroke-linejoin="round"/>
</svg>
