<svg width="152" height="153" viewBox="0 0 152 153" fill="none" xmlns="http://www.w3.org/2000/svg">
<path fill-rule="evenodd" clip-rule="evenodd" d="M147.847 78.1538C150.137 73.2811 150.872 68.1083 149.937 63.0664C148.685 56.3134 144.597 48.8446 138.209 43.1562C138.785 33.4774 135.551 25.2367 129.279 20.0872C123.713 15.5171 115.208 12.4507 106.149 12.7294C102.043 6.54299 96.3484 2.59111 89.863 1.45472C85.2637 0.648814 79.8738 1.02701 74.5191 2.70844C63.283 -0.0200294 52.9243 1.64779 46.7016 7.9642C45.7221 8.95849 44.7852 10.0707 43.906 11.2848C29.3896 11.6224 17.9774 18.516 13.7372 28.3142C11.6735 33.083 10.727 39.1371 11.3098 45.4422C4.1568 51.5373 0.533126 59.4396 1.07702 67.5199C1.29216 70.7161 2.10157 74.1412 3.48036 77.5374C0.527675 87.2914 1.93041 96.4725 7.21838 103.085C8.78727 105.046 10.7398 106.906 12.9939 108.566C14.4745 127.481 25.0922 139.469 37.6462 141.19C40.4107 141.569 43.4424 141.515 46.564 141.008C50.7751 146.301 56.2369 149.583 62.2931 150.414C66.925 151.049 72.307 150.468 77.6057 148.581C82.9519 151.085 88.5633 151.678 93.8782 150.247C99.1309 148.834 104.706 145.505 109.343 140.642C118.151 141.148 125.747 138.161 130.735 132.295C135.221 127.018 138.454 118.932 138.767 110.118C144.683 105.774 148.38 99.8757 149.316 93.2475C149.959 88.6876 149.498 83.4013 147.847 78.1538Z" fill="#9D2933"/>
<path fill-rule="evenodd" clip-rule="evenodd" d="M148.326 80.1093C150.706 75.2741 151.527 70.1138 150.669 65.0575C149.521 58.2853 145.533 50.7517 139.207 44.9614C139.942 35.2932 136.825 27.0015 130.607 21.752C125.088 17.0931 116.593 13.8904 107.486 14.0235C103.461 7.77201 97.8026 3.72915 91.3047 2.48873C86.6966 1.60904 81.275 1.90061 75.8678 3.4958C64.6225 0.587191 54.1877 2.0884 47.8335 8.30403C46.8333 9.28246 45.874 10.3795 44.971 11.5793C30.3803 11.6837 18.8027 18.393 14.3842 28.1218C12.2337 32.8569 11.185 38.8951 11.6688 45.2087C4.38349 51.188 0.615064 59.0311 1.03111 67.1191C1.19568 70.3184 1.95363 73.756 3.28415 77.174C0.159998 86.8792 1.42119 96.0817 6.6275 102.778C8.17217 104.764 10.1039 106.655 12.342 108.351C13.5242 127.288 23.9988 139.444 36.5846 141.367C39.3561 141.79 42.403 141.785 45.5476 141.329C49.6932 146.689 55.1279 150.058 61.1995 150.986C65.8432 151.695 71.26 151.2 76.6143 149.399C81.9454 151.989 87.5739 152.671 92.9371 151.327C98.2376 149.998 103.893 146.759 108.63 141.971C117.472 142.619 125.152 139.754 130.258 133.968C134.851 128.764 138.23 120.731 138.687 111.924C144.701 107.675 148.511 101.837 149.558 95.2247C150.278 90.6757 149.9 85.3827 148.326 80.1093ZM145.715 80.2817C148.009 75.6059 148.8 70.6157 147.974 65.7261C146.866 59.1772 143.023 51.8919 136.925 46.2925C137.633 36.943 134.629 28.9247 128.636 23.8483C123.316 19.3429 115.127 16.2459 106.349 16.3746C102.469 10.3292 97.0154 6.41958 90.7521 5.22005C86.3103 4.36936 81.0845 4.65132 75.8725 6.19392C65.0331 3.3812 54.9751 4.83291 48.8503 10.8436C47.8862 11.7898 46.9615 12.8507 46.0911 14.011C32.0272 14.1119 20.8675 20.6 16.6085 30.0081C14.5357 34.5871 13.5248 40.4262 13.9912 46.5317C6.96886 52.3139 3.33647 59.8984 3.7375 67.7197C3.89612 70.8135 4.62672 74.1378 5.9092 77.4431C2.89783 86.8285 4.11349 95.7276 9.13186 102.203C10.6208 104.124 12.4828 105.952 14.64 107.593C15.7796 125.905 25.876 137.661 38.0074 139.52C40.6789 139.929 43.6158 139.924 46.6469 139.483C50.6429 144.666 55.8814 147.925 61.7337 148.822C66.2098 149.508 71.4311 149.029 76.592 147.287C81.7307 149.792 87.156 150.452 92.3256 149.151C97.4347 147.866 102.886 144.734 107.452 140.104C115.975 140.73 123.378 137.96 128.299 132.365C132.726 127.333 135.983 119.564 136.424 111.047C142.221 106.938 145.893 101.293 146.902 94.8988C147.596 90.4998 147.232 85.3812 145.715 80.2817Z" fill="white"/>
<path fill-rule="evenodd" clip-rule="evenodd" d="M143.484 80.1905C145.715 75.6563 146.486 70.8173 145.681 66.0759C144.604 59.7254 140.865 52.661 134.933 47.2312C135.622 38.165 132.699 30.3897 126.868 25.4671C121.693 21.0983 113.727 18.0951 105.187 18.2199C101.412 12.3577 96.1066 8.56655 90.0134 7.40336C85.6922 6.57846 80.6082 6.85187 75.5377 8.34773C64.9926 5.62024 55.2077 7.02796 49.2492 12.8565C48.3112 13.774 47.4117 14.8028 46.5649 15.9279C32.8828 16.0257 22.0261 22.3173 17.8828 31.4403C15.8662 35.8805 14.8828 41.5426 15.3365 47.4631C8.50483 53.0701 4.97107 60.4248 5.3612 68.0091C5.51552 71.0092 6.22628 74.2327 7.47394 77.4379C4.54434 86.5388 5.72699 95.1682 10.6091 101.447C12.0576 103.31 13.8691 105.083 15.9677 106.674C17.0764 124.431 26.8986 135.831 38.7007 137.634C41.2996 138.031 44.1568 138.025 47.1056 137.598C50.9931 142.624 56.0894 145.784 61.7829 146.653C66.1374 147.319 71.2169 146.855 76.2377 145.166C81.2369 147.594 86.5149 148.234 91.5441 146.973C96.5145 145.727 101.818 142.69 106.26 138.2C114.552 138.807 121.753 136.121 126.541 130.696C130.848 125.815 134.016 118.283 134.445 110.024C140.085 106.039 143.657 100.565 144.639 94.3646C145.314 90.0989 144.96 85.1354 143.484 80.1905ZM141.035 80.3519C143.186 75.9672 143.929 71.2877 143.154 66.7026C142.115 60.5615 138.511 53.7299 132.793 48.4792C133.457 39.7119 130.64 32.1929 125.02 27.4326C120.032 23.2078 112.353 20.3036 104.121 20.4243C100.483 14.7553 95.3686 11.0892 89.4953 9.96434C85.3302 9.16663 80.4297 9.43103 75.5423 10.8776C65.3779 8.24 55.9462 9.60132 50.2028 15.2377C49.2987 16.125 48.4316 17.1198 47.6154 18.2078C34.4273 18.3024 23.9625 24.3866 19.9688 33.2088C18.025 37.5027 17.0771 42.9781 17.5144 48.7034C10.9294 54.1256 7.52316 61.2378 7.89921 68.5721C8.04796 71.4733 8.73306 74.5906 9.93568 77.69C7.11184 86.4909 8.25179 94.8359 12.9577 100.908C14.3538 102.71 16.0999 104.424 18.1228 105.962C19.1915 123.134 28.6591 134.158 40.0351 135.901C42.5402 136.285 45.2943 136.28 48.1366 135.866C51.8837 140.727 56.796 143.783 62.284 144.624C66.4813 145.267 71.3774 144.818 76.217 143.185C81.0357 145.533 86.1232 146.152 90.9708 144.933C95.7618 143.728 100.874 140.791 105.155 136.449C113.148 137.036 120.089 134.439 124.705 129.192C128.856 124.473 131.91 117.188 132.323 109.202C137.759 105.349 141.203 100.055 142.149 94.0587C142.8 89.9336 142.458 85.1338 141.035 80.3519Z" fill="white"/>
<path fill-rule="evenodd" clip-rule="evenodd" d="M99.0142 34.9671L99.0142 38.4636L105.776 38.4636L105.776 41.7603L98.4727 41.7603C96.9774 41.7603 95.7651 40.5303 95.7651 39.0131L95.7651 34.4177C95.7651 32.9004 96.9774 31.6704 98.4727 31.6704L110.483 31.6704C111.978 31.6704 113.19 32.9004 113.19 34.4177V38.3637L125.058 38.3637C126.554 38.3637 127.766 39.5937 127.766 41.111V53.2488H132.047C133.542 53.2488 134.754 54.4788 134.754 55.9961V67.7843C134.754 69.3016 133.542 70.5316 132.047 70.5316H127.225C125.729 70.5316 124.517 69.3016 124.517 67.7843V61.8902H127.766V67.2348H131.505V56.5455H120.378V76.1759C120.378 77.6932 119.166 78.9232 117.671 78.9232H105.76C104.265 78.9232 103.053 77.6932 103.053 76.1759L103.053 64.3377H98.872C97.3767 64.3377 96.1645 63.1078 96.1645 61.5905L96.1645 47.8043C96.1645 46.287 97.3767 45.057 98.872 45.057L109.941 45.057L109.941 34.9671L99.0142 34.9671ZM106.302 64.3377L106.302 75.6265H117.129V55.9961C117.129 54.4788 118.342 53.2488 119.837 53.2488H124.517V41.6604L113.19 41.6604V45.6065C113.19 47.1237 111.978 48.3537 110.483 48.3537L99.4136 48.3537L99.4136 53.2488H110.483C111.978 53.2488 113.19 54.4788 113.19 55.9961V61.5905C113.19 63.1078 111.978 64.3377 110.483 64.3377H106.302ZM99.4136 56.5455L99.4136 61.041H103.053L103.053 56.5455L99.4136 56.5455ZM106.302 56.5455V61.041L109.941 61.041L109.941 56.5455L106.302 56.5455Z" fill="white"/>
<path fill-rule="evenodd" clip-rule="evenodd" d="M38.1196 82.2197L50.0299 82.2197C51.5253 82.2197 52.7375 83.4497 52.7375 84.967V96.8051L56.9184 96.8051C58.4138 96.8051 59.626 98.0351 59.626 99.5524V113.339C59.626 114.856 58.4138 116.086 56.9184 116.086H45.8491L45.8491 126.176H56.7762V122.679L50.0148 122.679V119.383L57.3177 119.383C58.8131 119.383 60.0253 120.613 60.0253 122.13V126.725C60.0253 128.243 58.8131 129.472 57.3177 129.472H45.3076C43.8122 129.472 42.6 128.242 42.6 126.725V122.779H30.732C29.2366 122.779 28.0244 121.549 28.0244 120.032L28.0244 107.894H23.7437C22.2484 107.894 21.0361 106.664 21.0361 105.147L21.0361 93.3586C21.0361 91.8413 22.2484 90.6113 23.7437 90.6113L28.5659 90.6113C30.0613 90.6113 31.2735 91.8413 31.2735 93.3586V99.2527H28.0244V93.908L24.2852 93.908V104.597L35.412 104.597L35.412 84.967C35.412 83.4497 36.6243 82.2197 38.1196 82.2197ZM31.2735 107.894V119.482H42.6L42.6 115.536C42.6 114.019 43.8122 112.789 45.3076 112.789H56.3769V107.894L45.3076 107.894C43.8122 107.894 42.6 106.664 42.6 105.147L42.6 99.5524C42.6 98.0351 43.8122 96.8051 45.3076 96.8051L49.4884 96.8051V85.5164H38.6611V105.147C38.6611 106.664 37.4489 107.894 35.9535 107.894L31.2735 107.894ZM49.4884 100.102H45.8491L45.8491 104.597H49.4884V100.102ZM52.7375 104.597L56.3769 104.597V100.102H52.7375V104.597Z" fill="white"/>
<path d="M30.9911 60.0857C30.9911 58.8091 32.026 57.7742 33.3026 57.7742H70.4944C71.771 57.7742 72.8059 58.8091 72.8059 60.0857C72.8059 61.3623 71.771 62.3972 70.4944 62.3972H33.3026C32.026 62.3972 30.9911 61.3623 30.9911 60.0857ZM49.2937 58.3219C49.2937 56.7815 50.5425 55.5327 52.0829 55.5327C53.6233 55.5327 54.8721 56.7815 54.8721 58.3219V72.9167C54.8721 74.4572 53.6233 75.7059 52.0829 75.7059C50.5425 75.7059 49.2937 74.4572 49.2937 72.9167V58.3219ZM51.7807 47.1272C50.8909 47.1272 50.1696 47.8485 50.1696 48.7383C50.1696 49.628 50.8909 50.3493 51.7807 50.3493H51.9702C52.8599 50.3493 53.5812 49.628 53.5812 48.7383C53.5812 47.8485 52.8599 47.1272 51.9702 47.1272H51.7807ZM51.7573 40.1226C50.8805 40.1226 50.1696 40.8335 50.1696 41.7103C50.1696 42.5872 50.8805 43.298 51.7573 43.298H51.9935C52.8704 43.298 53.5812 42.5872 53.5812 41.7103C53.5812 40.8335 52.8704 40.1226 51.9935 40.1226H51.7573ZM45.4672 42.5604C45.4672 38.9703 48.3775 36.06 51.9676 36.06C55.5577 36.06 58.4681 38.9703 58.4681 42.5604V47.9582C58.4681 51.5483 55.5577 54.4587 51.9676 54.4587C48.3775 54.4587 45.4672 51.5483 45.4672 47.9582V42.5604ZM49.6526 33.9854C49.8828 32.747 51.0503 31.8502 52.2924 32.0599C53.6588 32.2906 54.4592 33.7349 53.9285 35.015C53.6773 35.6211 53.4325 36.2058 53.1991 36.7473C52.8176 37.632 51.8505 38.0914 50.9145 37.8634C49.7998 37.5918 49.1317 36.4535 49.3784 35.333C49.4765 34.8872 49.5694 34.4326 49.6526 33.9854ZM68.3076 50.0602C68.0587 49.0635 68.6486 48.0398 69.6445 47.7877C70.5886 47.5486 71.5556 48.0923 71.811 49.0321C72.2487 50.6426 72.6552 52.3811 72.9439 53.8789C73.1203 54.7942 72.5475 55.6736 71.6496 55.9237C70.5438 56.2317 69.4204 55.4691 69.2239 54.3383C68.9869 52.9747 68.6609 51.4748 68.3076 50.0602ZM40.4421 49.4642C40.2272 48.4596 40.8495 47.457 41.8521 47.2328C42.8153 47.0174 43.778 47.6011 44.0041 48.5618C44.3917 50.2085 44.7507 51.9863 45.0022 53.5306C45.1533 54.4586 44.5524 55.3303 43.6403 55.5584C42.5216 55.8382 41.4134 55.0457 41.2483 53.9044C41.0439 52.4906 40.7556 50.9296 40.4421 49.4642ZM32.4663 46.6135C32.3757 46.2829 32.2137 45.7573 32.0225 45.1758C31.5671 43.7912 32.2442 41.9639 33.0196 40.7297C33.5355 39.9831 34.9351 37.4762 35.994 34.6638C36.4275 33.5126 37.6884 32.8527 38.8499 33.2576C40.0127 33.6628 40.5952 34.9665 40.0581 36.0745C38.5703 39.1434 36.6748 42.1885 34.988 44.2855C34.967 44.3116 34.9559 44.3436 34.9559 44.3771C34.9559 44.4314 34.9271 44.4806 34.8794 44.5066C34.4607 44.7348 32.4663 45.8612 32.4663 46.6135ZM32.4663 46.6135L32.4184 44.9854C32.3908 44.0503 32.8412 43.1655 33.6134 42.6375C34.0097 42.3666 34.4701 42.2042 34.9486 42.1667L38.5821 41.8816C39.6746 41.7959 40.5491 42.904 40.4451 43.9949C40.369 44.7926 39.7659 45.3285 38.9707 45.427C34.2822 46.0074 33.1421 46.2713 32.4663 46.6135ZM32.328 55.8129C32.3007 55.6815 32.2623 55.5234 32.2148 55.3456C31.7023 53.4273 32.5825 50.7181 33.8955 49.2286C34.8848 48.1063 37.8782 44.1283 40.1058 39.923C40.6918 38.8167 42.0727 38.3604 43.165 38.9722C44.2033 39.5537 44.5684 40.8738 43.9361 41.882C41.2316 46.1944 37.8397 50.4274 34.5842 53.5302C34.5564 53.5567 34.5409 53.5932 34.5409 53.6316C34.5409 53.6811 34.5159 53.7263 34.4737 53.7522C34.1032 53.9788 32.328 55.1019 32.328 55.8129ZM32.328 55.8129L32.2588 54.2245C32.2159 53.2393 32.6908 52.3032 33.5113 51.756C33.885 51.5067 34.3128 51.3503 34.7592 51.2998L41.4671 50.5412C42.5226 50.4219 43.4065 51.4722 43.3438 52.5326C43.2967 53.329 42.7073 53.8849 41.9169 53.9939C34.5157 55.0145 33.1549 55.3721 32.328 55.8129ZM59.8972 46.8937C59.8031 46.5121 59.6319 45.9356 59.4278 45.3108C58.9888 43.9667 59.627 42.0509 60.4044 40.8698C60.9262 40.0769 62.3523 37.4522 63.4641 34.5757C63.901 33.4452 65.1201 32.7873 66.2824 33.1307C67.5317 33.4997 68.1952 34.8649 67.6381 36.0425C66.127 39.2367 64.1713 42.3714 62.4541 44.5322C62.4402 44.5497 62.4329 44.571 62.4329 44.5933C62.4329 44.6296 62.4142 44.6622 62.3824 44.6797C62.0257 44.876 59.8972 46.0808 59.8972 46.8937ZM59.8972 46.8937L59.8261 45.1891C59.7845 44.1904 60.2724 43.2439 61.11 42.6985C61.4944 42.4482 61.9338 42.295 62.3905 42.2522L66.8452 41.8344C68.0023 41.7259 68.9473 42.8892 68.8444 44.0467C68.7688 44.896 68.1225 45.4686 67.2758 45.568C61.8514 46.205 60.6197 46.5494 59.8972 46.8937ZM60.22 56.0931C60.1812 55.9438 60.1293 55.7574 60.0675 55.5451C59.4957 53.5823 60.4624 50.9723 61.7874 49.4154C62.8144 48.2952 65.8716 44.3987 68.1761 40.2218C68.7928 39.1041 70.2043 38.6556 71.3131 39.2882C72.3834 39.8988 72.7414 41.2738 72.067 42.3051C69.3 46.5364 65.8847 50.7607 62.5698 53.7645C62.5412 53.7904 62.5251 53.8269 62.5251 53.8655C62.5251 53.9147 62.4998 53.9594 62.4574 53.9843C62.0769 54.208 60.22 55.3387 60.22 56.0931ZM60.22 56.0931L60.1554 54.6102C60.1098 53.5647 60.6317 52.5758 61.5205 52.0233C61.9081 51.7824 62.3471 51.6365 62.8018 51.5974L69.7234 51.0021C70.8015 50.9094 71.6561 52.023 71.5492 53.0997C71.4675 53.9232 70.8417 54.4782 70.019 54.5674C62.4902 55.3839 61.0889 55.697 60.22 56.0931ZM41.8996 64.7751C42.6469 64.1937 43.6388 63.969 44.5231 64.3072C46.0412 64.8877 46.5439 66.7711 45.3497 67.8736C42.5094 70.4959 38.783 72.6763 34.9301 73.9982C34.0069 74.3149 33.0602 73.9712 32.5015 73.171C31.5024 71.74 32.1425 69.3387 33.803 68.8013C36.9218 67.7918 39.8336 66.3826 41.8996 64.7751ZM59.7861 68.2488C58.4706 67.4628 58.1891 65.6573 59.2355 64.5377C59.9546 63.7683 61.0978 63.5668 62.0265 64.0635C64.8817 65.5908 68.1939 67.5233 70.708 69.2387C71.9335 70.075 72.0796 71.7754 71.097 72.887C70.1344 73.976 68.4613 74.0746 67.2984 73.2028C65.1805 71.6152 62.3953 69.8077 59.7861 68.2488Z" fill="white"/>
<path d="M90.9264 105.584C90.9264 104.591 91.7314 103.786 92.7243 103.786H109.414C110.407 103.786 111.211 104.591 111.211 105.584C111.211 106.577 110.407 107.382 109.414 107.382H92.7243C91.7314 107.382 90.9264 106.577 90.9264 105.584ZM115.026 113.22C115.961 112.536 117.249 112.537 118.142 113.275C119.383 114.301 119.296 116.226 117.93 117.077C115.593 118.533 113.12 119.909 110.937 120.997C110.16 121.385 109.227 121.237 108.59 120.646C107.497 119.631 107.755 117.824 109.048 117.081C111.085 115.912 113.252 114.516 115.026 113.22ZM90.7881 99.7935C90.7881 98.6974 91.6767 97.8088 92.7728 97.8088H107.056C111.337 97.8088 114.807 101.279 114.807 105.561C114.807 109.842 111.337 113.312 107.056 113.312H92.7961C91.6871 113.312 90.7881 112.413 90.7881 111.304C90.7881 110.195 91.6871 109.296 92.7961 109.296H105.47C107.546 109.296 109.229 107.613 109.229 105.537C109.229 103.461 107.546 101.778 105.47 101.778H92.7728C91.6767 101.778 90.7881 100.89 90.7881 99.7935ZM101.242 86.173C102.105 85.7021 103.165 85.8332 103.944 86.4339C107.77 89.3864 113.645 92.1914 119.413 94.0322C121.12 94.5768 121.725 96.9649 120.704 98.4367C120.097 99.3111 119.064 99.6429 118.061 99.2887C112.074 97.1758 105.613 93.6823 100.828 89.7623C99.6214 88.7737 99.8726 86.9199 101.242 86.173ZM98.6741 84.6411C99.5509 83.7097 100.93 83.3754 102.074 83.949C103.592 84.7108 104.012 86.6854 102.816 87.8911C98.0161 92.7269 91.5856 96.5026 84.8593 99.0998C83.825 99.4991 82.7348 99.1459 82.1039 98.2343C81.1531 96.8607 81.6072 94.6998 83.1735 94.119C89.0862 91.9266 94.9006 88.6493 98.6741 84.6411ZM87.6071 127.228C86.8461 124.916 87.3322 121.778 87.3757 119.344C87.3763 119.311 87.3766 119.277 87.3766 119.243V100.529C87.3766 99.0266 88.5944 97.8088 90.0966 97.8088C91.5988 97.8088 92.8166 99.0266 92.8166 100.529V114.845C92.8166 119.433 87.6071 122.641 87.6071 127.228ZM87.6071 127.228L87.5027 125.347C87.4249 123.943 88.1151 122.608 89.3053 121.859C89.7958 121.551 90.3494 121.357 90.925 121.291L100.912 120.152C102.257 119.998 103.408 121.29 103.406 122.643C103.404 123.747 102.606 124.593 101.513 124.746C90.834 126.243 88.8706 126.61 87.6071 127.228ZM101.518 118.426C100.104 117.679 99.8369 115.74 101.028 114.673C101.696 114.074 102.656 113.927 103.467 114.313C107.876 116.413 113.218 119.262 117.074 121.731C118.451 122.613 118.579 124.524 117.403 125.659C116.446 126.583 114.953 126.654 113.867 125.884C110.605 123.573 105.857 120.719 101.518 118.426ZM94.9835 94.7035C94.9835 93.6848 95.8093 92.8589 96.828 92.8589H105.587C106.605 92.8589 107.431 93.6848 107.431 94.7035C107.431 95.7222 106.605 96.548 105.587 96.548H96.828C95.8093 96.548 94.9835 95.7222 94.9835 94.7035Z" fill="white"/>
</svg>
